<svg xmlns="http://www.w3.org/2000/svg" xmlns:xlink="http://www.w3.org/1999/xlink" width="431" zoomAndPan="magnify" viewBox="0 0 323.25 79.499998" height="106" preserveAspectRatio="xMidYMid meet" version="1.0"><defs><g/><clipPath id="03d657ef1c"><path d="M 0.636719 55 L 27 55 L 27 73 L 0.636719 73 Z M 0.636719 55 " clip-rule="nonzero"/></clipPath><clipPath id="398ee829ac"><path d="M 54 65 L 75.167969 65 L 75.167969 79 L 54 79 Z M 54 65 " clip-rule="nonzero"/></clipPath></defs><path fill="#55b1e7" d="M 61.441406 41.828125 L 50.5625 34.144531 L 50.5625 33.007812 L 61.441406 40.6875 Z M 61.441406 44.488281 L 50.5625 36.808594 L 50.5625 35.671875 L 61.441406 43.351562 Z M 61.441406 47.152344 L 50.5625 39.472656 L 50.5625 38.332031 L 61.441406 46.015625 Z M 61.441406 49.816406 L 50.5625 42.132812 L 50.5625 40.996094 L 61.441406 48.675781 Z M 61.441406 52.476562 L 50.5625 44.796875 L 50.5625 43.660156 L 61.441406 51.339844 Z M 61.441406 55.140625 L 50.5625 47.460938 L 50.5625 46.320312 L 61.441406 54.003906 Z M 61.441406 57.804688 L 50.5625 50.125 L 50.5625 48.984375 L 61.441406 56.664062 Z M 50.5625 30.625 L 48.214844 31.976562 L 48.214844 52.882812 L 49.28125 53.015625 L 49.820312 53.085938 L 50.210938 53.460938 L 52.605469 55.75 L 58.550781 59.949219 L 60.351562 59.699219 L 50.5625 52.785156 L 50.5625 51.648438 L 61.441406 59.328125 L 61.441406 59.546875 L 61.746094 59.503906 L 62.667969 59.375 L 62.792969 59.535156 L 62.792969 39.261719 Z M 46.015625 33.246094 L 46.015625 41.914062 L 45.410156 41.914062 L 45.410156 33.59375 L 43.308594 34.804688 L 43.308594 48.355469 L 42.890625 48.355469 L 42.890625 35.046875 L 41.519531 35.835938 L 41.519531 49.980469 L 45.910156 49.980469 L 45.910156 52.59375 L 47.335938 52.773438 L 47.335938 32.484375 L 46.015625 33.246094 " fill-opacity="1" fill-rule="nonzero"/><path fill="#211c1d" d="M 40.316406 66.53125 L 40.433594 66.636719 L 40.433594 67.578125 L 40.316406 67.472656 L 39.882812 67.089844 L 39.882812 66.148438 L 40.316406 66.53125 " fill-opacity="1" fill-rule="nonzero"/><path fill="#3672c1" d="M 48.738281 18.605469 L 46.101562 16.269531 L 46.101562 11.058594 L 48.738281 13.394531 Z M 48.738281 24.761719 L 46.101562 22.425781 L 46.101562 17.210938 L 48.738281 19.546875 Z M 45.628906 15.851562 L 43.914062 14.332031 L 42.988281 13.515625 L 42.988281 8.300781 L 43.914062 9.121094 L 45.628906 10.636719 Z M 45.628906 22.003906 L 43.914062 20.488281 L 42.988281 19.667969 L 42.988281 14.457031 L 43.914062 15.273438 L 45.628906 16.792969 Z M 45.628906 28.160156 L 43.914062 26.640625 L 42.988281 25.824219 L 42.988281 20.609375 L 43.914062 21.429688 L 45.628906 22.945312 Z M 42.519531 13.09375 L 42.117188 12.738281 L 40.316406 11.148438 L 39.882812 10.761719 L 39.882812 5.550781 L 40.316406 5.933594 L 42.117188 7.527344 L 42.519531 7.882812 Z M 42.519531 19.25 L 42.117188 18.894531 L 40.316406 17.300781 L 39.882812 16.914062 L 39.882812 11.703125 L 40.316406 12.089844 L 42.117188 13.679688 L 42.519531 14.035156 Z M 42.519531 25.402344 L 42.117188 25.046875 L 40.316406 23.457031 L 39.882812 23.070312 L 39.882812 17.855469 L 40.316406 18.242188 L 42.117188 19.835938 L 42.519531 20.191406 Z M 42.519531 31.558594 L 42.117188 31.203125 L 40.316406 29.609375 L 39.882812 29.226562 L 39.882812 24.011719 L 40.316406 24.398438 L 42.117188 25.988281 L 42.519531 26.34375 Z M 39.40625 10.339844 L 38.515625 9.554688 L 36.945312 8.164062 L 36.769531 8.007812 L 36.769531 2.792969 L 36.945312 2.953125 L 38.515625 4.34375 L 39.40625 5.128906 Z M 39.40625 16.496094 L 38.515625 15.710938 L 36.945312 14.320312 L 36.769531 14.160156 L 36.769531 8.949219 L 36.945312 9.105469 L 38.515625 10.496094 L 39.40625 11.285156 Z M 39.40625 22.648438 L 38.515625 21.863281 L 36.945312 20.472656 L 36.769531 20.316406 L 36.769531 15.101562 L 36.945312 15.261719 L 38.515625 16.648438 L 39.40625 17.4375 Z M 39.40625 28.804688 L 38.515625 28.015625 L 36.945312 26.625 L 36.769531 26.46875 L 36.769531 21.253906 L 36.945312 21.414062 L 38.515625 22.804688 L 39.40625 23.589844 Z M 39.40625 34.957031 L 38.515625 34.167969 L 36.945312 32.78125 L 36.769531 32.621094 L 36.769531 27.410156 L 36.945312 27.566406 L 38.515625 28.957031 L 39.40625 29.746094 Z M 39.40625 41.113281 L 38.515625 40.324219 L 36.945312 38.933594 L 36.769531 38.777344 L 36.769531 33.5625 L 36.945312 33.71875 L 38.515625 35.109375 L 39.40625 35.898438 Z M 39.40625 47.265625 L 38.515625 46.476562 L 36.945312 45.085938 L 36.769531 44.929688 L 36.769531 39.71875 L 36.945312 39.875 L 38.515625 41.265625 L 39.40625 42.050781 Z M 48.792969 11.769531 L 45.601562 8.945312 L 43.804688 7.351562 L 42.003906 5.757812 L 40.203125 4.167969 L 38.40625 2.574219 L 36.835938 1.183594 L 35.535156 0.03125 L 24.984375 7.65625 L 24.984375 19.425781 L 32.25 22.378906 L 32.925781 22.65625 L 32.925781 51.425781 L 37.90625 52.09375 L 36.945312 51.242188 L 36.769531 51.082031 L 36.769531 45.871094 L 36.945312 46.027344 L 38.515625 47.417969 L 39.40625 48.207031 L 39.40625 49.980469 L 39.882812 49.980469 L 39.882812 48.625 L 39.882812 48.628906 L 39.882812 42.472656 L 39.882812 42.476562 L 39.882812 36.316406 L 39.882812 36.320312 L 39.882812 30.164062 L 40.316406 30.550781 L 42.117188 32.140625 L 42.519531 32.496094 L 42.519531 33.375 L 42.988281 33.101562 L 42.988281 32.917969 L 43.117188 33.027344 L 43.757812 32.65625 L 42.988281 31.976562 L 42.988281 26.765625 L 43.914062 27.582031 L 45.628906 29.097656 L 45.628906 31.578125 L 46.101562 31.304688 L 46.101562 29.519531 L 47.324219 30.601562 L 47.398438 30.558594 L 47.96875 30.230469 L 46.101562 28.578125 L 46.101562 23.363281 L 48.738281 25.703125 L 48.738281 29.785156 L 49.574219 29.304688 L 49.574219 12.460938 L 48.792969 11.769531 " fill-opacity="1" fill-rule="nonzero"/><path fill="#55b1e7" d="M 13.007812 27.339844 L 22.136719 22.234375 L 22.136719 24.3125 L 23.15625 23.585938 L 31.269531 26.886719 L 31.269531 23.957031 L 22.355469 20.332031 L 13.007812 27.339844 " fill-opacity="1" fill-rule="nonzero"/><path fill="#55b1e7" d="M 13.007812 32.21875 L 22.136719 27.113281 L 22.136719 29.191406 L 23.15625 28.46875 L 31.269531 31.765625 L 31.269531 28.835938 L 22.355469 25.210938 L 13.007812 32.21875 " fill-opacity="1" fill-rule="nonzero"/><path fill="#55b1e7" d="M 13.007812 37.097656 L 22.136719 31.992188 L 22.136719 34.070312 L 23.15625 33.347656 L 31.269531 36.644531 L 31.269531 33.714844 L 22.355469 30.089844 L 13.007812 37.097656 " fill-opacity="1" fill-rule="nonzero"/><path fill="#55b1e7" d="M 13.007812 41.976562 L 22.136719 36.871094 L 22.136719 38.949219 L 23.15625 38.222656 L 31.269531 41.523438 L 31.269531 38.59375 L 22.355469 34.96875 L 13.007812 41.976562 " fill-opacity="1" fill-rule="nonzero"/><path fill="#55b1e7" d="M 13.007812 46.855469 L 22.136719 41.75 L 22.136719 43.828125 L 23.15625 43.105469 L 31.269531 46.402344 L 31.269531 43.472656 L 22.355469 39.847656 L 13.007812 46.855469 " fill-opacity="1" fill-rule="nonzero"/><path fill="#55b1e7" d="M 13.007812 51.734375 L 15.289062 50.019531 L 14.65625 50.8125 Z M 13.007812 51.734375 " fill-opacity="1" fill-rule="nonzero"/><path fill="#55b1e7" d="M 31.269531 48.351562 L 31.269531 51.28125 L 30.988281 51.167969 L 23.15625 47.984375 L 22.136719 48.707031 L 22.136719 46.628906 L 17.289062 49.339844 L 16.890625 49.285156 L 16.363281 49.214844 L 22.355469 44.726562 L 31.269531 48.351562 " fill-opacity="1" fill-rule="nonzero"/><path fill="#55b1e7" d="M 23.859375 50.214844 L 21.886719 49.953125 L 22.355469 49.605469 Z M 23.859375 50.214844 " fill-opacity="1" fill-rule="nonzero"/><g clip-path="url(#03d657ef1c)"><path fill="#4c9ada" d="M 26.320312 65.894531 C 26.152344 65.753906 19.789062 61.523438 16.675781 58.980469 L 0.636719 72.617188 L 15.484375 57.007812 L 16.675781 55.753906 L 18.695312 57.878906 L 26.320312 65.894531 " fill-opacity="1" fill-rule="nonzero"/></g><path fill="#3e3d3f" d="M 44.808594 60.070312 L 38.46875 60.070312 L 38.46875 62.265625 L 35.957031 62.570312 L 35.414062 62.636719 L 35.023438 63.011719 L 30.347656 67.488281 L 16.675781 53.117188 L 5.292969 65.078125 L 16.675781 50.910156 L 39.347656 53.933594 L 39.347656 56.707031 L 40.542969 57.960938 L 40.542969 51.613281 L 44.273438 51.613281 L 44.273438 54.035156 L 49.078125 54.640625 L 55.125 60.429688 L 44.808594 61.871094 L 44.808594 60.070312 " fill-opacity="1" fill-rule="nonzero"/><path fill="#4c9ada" d="M 13.554688 67.042969 L 13.554688 67.746094 L 16.132812 67.746094 L 16.132812 64.464844 C 14.707031 64.464844 13.554688 65.621094 13.554688 67.042969 " fill-opacity="1" fill-rule="nonzero"/><path fill="#4c9ada" d="M 17.148438 64.464844 L 17.148438 67.746094 L 19.726562 67.746094 L 19.726562 67.042969 C 19.726562 65.621094 18.574219 64.464844 17.148438 64.464844 " fill-opacity="1" fill-rule="nonzero"/><path fill="#4c9ada" d="M 13.554688 71.339844 L 16.132812 71.339844 L 16.132812 68.761719 L 13.554688 68.761719 L 13.554688 71.339844 " fill-opacity="1" fill-rule="nonzero"/><path fill="#4c9ada" d="M 17.148438 71.339844 L 19.726562 71.339844 L 19.726562 68.761719 L 17.148438 68.761719 L 17.148438 71.339844 " fill-opacity="1" fill-rule="nonzero"/><g clip-path="url(#398ee829ac)"><path fill="#3e3d3f" d="M 75.164062 78.976562 L 65.890625 71.09375 L 61.972656 67.761719 C 60.785156 68.734375 59.023438 70.003906 57.460938 71.09375 C 55.65625 72.359375 54.117188 73.386719 54.042969 73.449219 L 56.28125 71.09375 L 60.3125 66.855469 L 61.039062 66.09375 L 61.972656 65.109375 L 62.953125 66.140625 L 75.164062 78.976562 " fill-opacity="1" fill-rule="nonzero"/></g><path fill="#4c9ada" d="M 71.335938 72.78125 L 61.972656 62.941406 L 59.957031 65.058594 L 54.214844 71.09375 L 47.90625 77.726562 L 22.023438 77.726562 L 31.476562 68.675781 L 36.152344 64.195312 L 40.105469 63.714844 L 40.105469 61.707031 L 43.175781 61.707031 L 43.175781 66.925781 L 44.15625 65.894531 L 44.15625 63.613281 L 56.628906 61.871094 L 61.972656 61.125 L 71.335938 72.78125 " fill-opacity="1" fill-rule="nonzero"/><path fill="#3e3d3f" d="M 64.542969 74.394531 L 64.542969 74.972656 L 62.421875 74.972656 L 62.421875 72.273438 C 63.589844 72.273438 64.542969 73.222656 64.542969 74.394531 " fill-opacity="1" fill-rule="nonzero"/><path fill="#3e3d3f" d="M 61.585938 72.273438 L 61.585938 74.972656 L 59.464844 74.972656 L 59.464844 74.394531 C 59.464844 73.222656 60.414062 72.273438 61.585938 72.273438 " fill-opacity="1" fill-rule="nonzero"/><path fill="#3e3d3f" d="M 64.542969 77.929688 L 62.421875 77.929688 L 62.421875 75.808594 L 64.542969 75.808594 L 64.542969 77.929688 " fill-opacity="1" fill-rule="nonzero"/><path fill="#3e3d3f" d="M 61.585938 77.929688 L 59.464844 77.929688 L 59.464844 75.808594 L 61.585938 75.808594 L 61.585938 77.929688 " fill-opacity="1" fill-rule="nonzero"/><path fill="#211c1d" d="M 30.988281 51.167969 L 31.269531 51.28125 L 31.269531 51.207031 Z M 30.988281 51.167969 " fill-opacity="1" fill-rule="nonzero"/><g fill="#ffffff" fill-opacity="1"><g transform="translate(72.061464, 33.614805)"><g><path d="M 13.875 -14.390625 C 13.875 -14.773438 13.738281 -15.101562 13.46875 -15.375 C 13.207031 -15.644531 12.894531 -15.789062 12.53125 -15.8125 L 8.0625 -15.8125 L 8.0625 -1.703125 C 8.070312 -1.285156 8.222656 -0.9375 8.515625 -0.65625 C 8.804688 -0.375 9.15625 -0.234375 9.5625 -0.234375 L 9.875 -0.234375 L 9.875 0 L 4.71875 0 L 4.71875 -0.234375 L 5.015625 -0.234375 C 5.421875 -0.234375 5.769531 -0.375 6.0625 -0.65625 C 6.351562 -0.9375 6.507812 -1.273438 6.53125 -1.671875 L 6.53125 -15.8125 L 2.046875 -15.8125 C 1.671875 -15.789062 1.351562 -15.644531 1.09375 -15.375 C 0.832031 -15.101562 0.703125 -14.773438 0.703125 -14.390625 L 0.703125 -14 L 0.46875 -13.96875 L 0.46875 -16.9375 C 0.707031 -16.84375 1.113281 -16.75 1.6875 -16.65625 C 2.269531 -16.5625 2.804688 -16.515625 3.296875 -16.515625 L 11.265625 -16.515625 C 12.035156 -16.515625 12.675781 -16.570312 13.1875 -16.6875 C 13.695312 -16.8125 14.003906 -16.894531 14.109375 -16.9375 L 14.109375 -13.96875 L 13.875 -14 Z M 13.875 -14.390625 "/></g></g></g><g fill="#ffffff" fill-opacity="1"><g transform="translate(86.620805, 33.614805)"><g><path d="M 5.703125 -13.40625 L 4.453125 -13.40625 L 4.453125 -1.515625 C 4.472656 -1.023438 4.691406 -0.65625 5.109375 -0.40625 C 5.316406 -0.289062 5.546875 -0.234375 5.796875 -0.234375 L 6.109375 -0.234375 L 6.125 0 L 1.296875 0 L 1.296875 -0.234375 L 1.625 -0.234375 C 1.988281 -0.234375 2.296875 -0.351562 2.546875 -0.59375 C 2.804688 -0.84375 2.9375 -1.140625 2.9375 -1.484375 L 2.9375 -12.671875 C 2.9375 -13.015625 2.804688 -13.304688 2.546875 -13.546875 C 2.296875 -13.785156 1.988281 -13.90625 1.625 -13.90625 L 1.296875 -13.90625 L 1.296875 -14.140625 L 7.203125 -14.140625 C 8.679688 -14.140625 9.847656 -13.800781 10.703125 -13.125 C 11.566406 -12.445312 12 -11.554688 12 -10.453125 C 12 -9.359375 11.648438 -8.441406 10.953125 -7.703125 C 10.265625 -6.960938 9.382812 -6.539062 8.3125 -6.4375 C 8.820312 -6.21875 9.425781 -5.601562 10.125 -4.59375 C 10.113281 -4.59375 10.382812 -4.242188 10.9375 -3.546875 C 11.5 -2.859375 11.945312 -2.320312 12.28125 -1.9375 C 12.625 -1.550781 12.90625 -1.257812 13.125 -1.0625 C 13.707031 -0.507812 14.375 -0.234375 15.125 -0.234375 L 15.125 0 L 14.390625 0 C 13.148438 0 12.175781 -0.242188 11.46875 -0.734375 C 10.9375 -1.085938 10.453125 -1.535156 10.015625 -2.078125 C 9.921875 -2.203125 9.523438 -2.753906 8.828125 -3.734375 C 8.128906 -4.710938 7.753906 -5.234375 7.703125 -5.296875 C 6.859375 -6.347656 6.066406 -6.875 5.328125 -6.875 L 5.328125 -7.109375 C 7.160156 -7.109375 8.265625 -7.207031 8.640625 -7.40625 C 9.160156 -7.664062 9.515625 -7.945312 9.703125 -8.25 C 10.097656 -8.875 10.296875 -9.566406 10.296875 -10.328125 C 10.296875 -11.273438 10.007812 -12.007812 9.4375 -12.53125 C 8.875 -13.050781 8.113281 -13.335938 7.15625 -13.390625 C 6.738281 -13.398438 6.253906 -13.40625 5.703125 -13.40625 Z M 5.703125 -13.40625 "/></g></g></g><g fill="#ffffff" fill-opacity="1"><g transform="translate(101.392177, 33.614805)"><g><path d="M 15.546875 -0.234375 L 15.734375 -0.234375 L 15.734375 0 L 10.90625 0 L 10.90625 -0.234375 L 11.09375 -0.234375 C 11.394531 -0.234375 11.625 -0.332031 11.78125 -0.53125 C 11.9375 -0.738281 12.015625 -0.929688 12.015625 -1.109375 C 12.015625 -1.296875 11.984375 -1.476562 11.921875 -1.65625 L 10.625 -4.78125 L 4.671875 -4.78125 L 3.375 -1.71875 C 3.289062 -1.507812 3.25 -1.316406 3.25 -1.140625 C 3.25 -0.960938 3.328125 -0.765625 3.484375 -0.546875 C 3.640625 -0.335938 3.875 -0.234375 4.1875 -0.234375 L 4.375 -0.234375 L 4.375 0 L -0.125 0 L -0.125 -0.234375 L 0.078125 -0.234375 C 0.398438 -0.234375 0.726562 -0.347656 1.0625 -0.578125 C 1.40625 -0.804688 1.6875 -1.148438 1.90625 -1.609375 C 5.34375 -8.953125 7.132812 -12.796875 7.28125 -13.140625 C 7.550781 -13.804688 7.691406 -14.25 7.703125 -14.46875 L 7.921875 -14.46875 L 13.734375 -1.609375 C 14.191406 -0.691406 14.796875 -0.234375 15.546875 -0.234375 Z M 4.96875 -5.484375 L 10.34375 -5.484375 L 7.703125 -11.953125 Z M 4.96875 -5.484375 "/></g></g></g><g fill="#ffffff" fill-opacity="1"><g transform="translate(117.011668, 33.614805)"><g><path d="M 8.953125 0.328125 C 6.546875 0.316406 4.644531 -0.347656 3.25 -1.671875 C 1.863281 -2.992188 1.171875 -4.796875 1.171875 -7.078125 C 1.171875 -9.367188 1.863281 -11.171875 3.25 -12.484375 C 4.644531 -13.804688 6.546875 -14.46875 8.953125 -14.46875 C 9.929688 -14.46875 10.914062 -14.34375 11.90625 -14.09375 C 12.894531 -13.84375 13.75 -13.492188 14.46875 -13.046875 L 14.984375 -9.703125 L 14.78125 -9.703125 C 14.101562 -12.410156 12.15625 -13.765625 8.9375 -13.765625 C 7.0625 -13.765625 5.582031 -13.164062 4.5 -11.96875 C 3.414062 -10.769531 2.875 -9.132812 2.875 -7.0625 C 2.875 -5.71875 3.113281 -4.546875 3.59375 -3.546875 C 4.082031 -2.546875 4.789062 -1.769531 5.71875 -1.21875 C 6.644531 -0.675781 7.722656 -0.40625 8.953125 -0.40625 C 10.179688 -0.40625 11.253906 -0.585938 12.171875 -0.953125 C 13.085938 -1.328125 13.847656 -1.9375 14.453125 -2.78125 C 15.054688 -3.625 15.398438 -4.675781 15.484375 -5.9375 L 15.6875 -5.9375 L 15.4375 -2.703125 C 14.820312 -1.765625 13.929688 -1.023438 12.765625 -0.484375 C 11.609375 0.0546875 10.335938 0.328125 8.953125 0.328125 Z M 8.953125 0.328125 "/></g></g></g><g fill="#ffffff" fill-opacity="1"><g transform="translate(133.62063, 33.614805)"><g><path d="M 15.203125 -13.90625 L 14.921875 -13.90625 C 14.492188 -13.90625 14.085938 -13.789062 13.703125 -13.5625 C 13.316406 -13.332031 13 -13.046875 12.75 -12.703125 L 8.21875 -5.84375 L 8.21875 -1.515625 C 8.21875 -1.160156 8.351562 -0.859375 8.625 -0.609375 C 8.894531 -0.359375 9.21875 -0.234375 9.59375 -0.234375 L 9.875 -0.234375 L 9.875 0 L 5.046875 0 L 5.046875 -0.234375 L 5.328125 -0.234375 C 5.703125 -0.234375 6.019531 -0.359375 6.28125 -0.609375 C 6.550781 -0.859375 6.6875 -1.160156 6.6875 -1.515625 L 6.6875 -5.859375 L 2.328125 -12.71875 C 1.796875 -13.507812 1.078125 -13.90625 0.171875 -13.90625 L -0.125 -13.90625 L -0.125 -14.140625 L 5.34375 -14.140625 L 5.34375 -13.90625 L 5.0625 -13.90625 C 4.769531 -13.90625 4.554688 -13.8125 4.421875 -13.625 C 4.285156 -13.4375 4.21875 -13.273438 4.21875 -13.140625 C 4.21875 -13.003906 4.234375 -12.878906 4.265625 -12.765625 L 7.703125 -6.671875 L 11.359375 -12.75 C 11.398438 -12.875 11.421875 -13.003906 11.421875 -13.140625 C 11.421875 -13.273438 11.351562 -13.4375 11.21875 -13.625 C 11.09375 -13.8125 10.875 -13.90625 10.5625 -13.90625 L 10.265625 -13.90625 L 10.265625 -14.140625 L 15.203125 -14.140625 Z M 15.203125 -13.90625 "/></g></g></g><g fill="#ffffff" fill-opacity="1"><g transform="translate(148.698264, 33.614805)"><g><path d="M 0.171875 -0.125 L 8.671875 -16.828125 L 9.40625 -16.40625 L 0.890625 0.328125 Z M 0.171875 -0.125 "/></g></g></g><g fill="#ffffff" fill-opacity="1"><g transform="translate(158.263138, 33.614805)"><g><path d="M 6.265625 -15.765625 L 4.765625 -15.765625 L 4.765625 -1.71875 C 4.765625 -1.3125 4.90625 -0.960938 5.1875 -0.671875 C 5.476562 -0.378906 5.835938 -0.234375 6.265625 -0.234375 L 6.546875 -0.234375 L 6.578125 0 L 1.40625 0 L 1.40625 -0.234375 L 1.71875 -0.234375 C 2.125 -0.234375 2.472656 -0.375 2.765625 -0.65625 C 3.054688 -0.9375 3.210938 -1.285156 3.234375 -1.703125 L 3.234375 -14.78125 C 3.210938 -15.1875 3.054688 -15.535156 2.765625 -15.828125 C 2.472656 -16.117188 2.125 -16.265625 1.71875 -16.265625 L 1.40625 -16.265625 L 1.40625 -16.5 L 7.78125 -16.5 C 9.207031 -16.5 10.328125 -16.097656 11.140625 -15.296875 C 11.960938 -14.503906 12.375 -13.476562 12.375 -12.21875 C 12.375 -10.957031 11.984375 -9.863281 11.203125 -8.9375 C 10.421875 -8.019531 9.472656 -7.5625 8.359375 -7.5625 C 8.597656 -7.457031 8.878906 -7.242188 9.203125 -6.921875 C 9.523438 -6.597656 9.8125 -6.265625 10.0625 -5.921875 C 11.414062 -3.984375 12.296875 -2.789062 12.703125 -2.34375 C 13.109375 -1.894531 13.394531 -1.585938 13.5625 -1.421875 C 13.738281 -1.253906 13.925781 -1.09375 14.125 -0.9375 C 14.332031 -0.78125 14.539062 -0.65625 14.75 -0.5625 C 15.207031 -0.34375 15.695312 -0.234375 16.21875 -0.234375 L 16.21875 0 L 14.921875 0 C 14.242188 0 13.613281 -0.117188 13.03125 -0.359375 C 12.445312 -0.609375 12.007812 -0.863281 11.71875 -1.125 C 11.425781 -1.382812 11.175781 -1.632812 10.96875 -1.875 C 10.757812 -2.113281 10.175781 -2.925781 9.21875 -4.3125 C 8.257812 -5.695312 7.695312 -6.484375 7.53125 -6.671875 C 7.375 -6.867188 7.210938 -7.0625 7.046875 -7.25 C 6.546875 -7.789062 6.039062 -8.0625 5.53125 -8.0625 L 5.53125 -8.296875 C 5.65625 -8.273438 5.820312 -8.265625 6.03125 -8.265625 C 6.238281 -8.265625 6.488281 -8.273438 6.78125 -8.296875 C 8.726562 -8.335938 9.957031 -9.15625 10.46875 -10.75 C 10.5625 -11.0625 10.609375 -11.351562 10.609375 -11.625 C 10.609375 -11.90625 10.609375 -12.082031 10.609375 -12.15625 C 10.578125 -13.207031 10.300781 -14.054688 9.78125 -14.703125 C 9.257812 -15.347656 8.5625 -15.691406 7.6875 -15.734375 C 7.300781 -15.753906 6.828125 -15.765625 6.265625 -15.765625 Z M 6.265625 -15.765625 "/></g></g></g><g fill="#ffffff" fill-opacity="1"><g transform="translate(174.212445, 33.614805)"><g><path d="M 5.140625 -13.53125 C 6.347656 -14.15625 7.675781 -14.46875 9.125 -14.46875 C 10.582031 -14.46875 11.914062 -14.15625 13.125 -13.53125 C 14.332031 -12.914062 15.289062 -12.039062 16 -10.90625 C 16.71875 -9.78125 17.078125 -8.5 17.078125 -7.0625 C 17.078125 -5.632812 16.71875 -4.351562 16 -3.21875 C 15.289062 -2.09375 14.332031 -1.21875 13.125 -0.59375 C 11.914062 0.0195312 10.675781 0.328125 9.40625 0.328125 C 8.132812 0.328125 7.007812 0.148438 6.03125 -0.203125 C 5.0625 -0.566406 4.21875 -1.070312 3.5 -1.71875 C 2.78125 -2.363281 2.210938 -3.148438 1.796875 -4.078125 C 1.378906 -5.003906 1.171875 -6.09375 1.171875 -7.34375 C 1.171875 -8.59375 1.53125 -9.78125 2.25 -10.90625 C 2.96875 -12.039062 3.929688 -12.914062 5.140625 -13.53125 Z M 4.703125 -2.25 C 5.890625 -1 7.359375 -0.375 9.109375 -0.375 C 10.867188 -0.375 12.347656 -1 13.546875 -2.25 C 14.742188 -3.5 15.34375 -5.101562 15.34375 -7.0625 C 15.34375 -9.03125 14.742188 -10.640625 13.546875 -11.890625 C 12.347656 -13.140625 10.867188 -13.765625 9.109375 -13.765625 C 7.359375 -13.765625 5.890625 -13.140625 4.703125 -11.890625 C 3.515625 -10.640625 2.921875 -9.03125 2.921875 -7.0625 C 2.921875 -5.101562 3.515625 -3.5 4.703125 -2.25 Z M 4.703125 -2.25 "/></g></g></g><g fill="#ffffff" fill-opacity="1"><g transform="translate(192.446956, 33.614805)"><g><path d="M 10.65625 -12.1875 C 10.882812 -11.726562 11 -11.175781 11 -10.53125 C 11 -9.882812 10.738281 -9.289062 10.21875 -8.75 C 9.707031 -8.207031 9.101562 -7.851562 8.40625 -7.6875 C 9.550781 -7.5625 10.5 -7.144531 11.25 -6.4375 C 12 -5.726562 12.375 -4.953125 12.375 -4.109375 C 12.375 -3.265625 12.210938 -2.578125 11.890625 -2.046875 C 11.566406 -1.515625 11.140625 -1.109375 10.609375 -0.828125 C 9.585938 -0.273438 8.429688 0 7.140625 0 L 1.296875 0 L 1.296875 -0.234375 L 1.578125 -0.234375 C 1.972656 -0.234375 2.300781 -0.351562 2.5625 -0.59375 C 2.832031 -0.84375 2.976562 -1.148438 3 -1.515625 L 3 -12.625 C 2.976562 -13.144531 2.738281 -13.515625 2.28125 -13.734375 C 2.082031 -13.847656 1.847656 -13.90625 1.578125 -13.90625 L 1.296875 -13.90625 L 1.296875 -14.140625 L 6.109375 -14.140625 C 8.441406 -14.140625 9.957031 -13.488281 10.65625 -12.1875 Z M 10.703125 -3.953125 C 10.703125 -6.296875 8.867188 -7.46875 5.203125 -7.46875 L 5.203125 -7.703125 C 7.972656 -7.703125 9.359375 -8.671875 9.359375 -10.609375 C 9.359375 -12.492188 8.265625 -13.4375 6.078125 -13.4375 L 4.484375 -13.4375 L 4.484375 -0.703125 L 7.109375 -0.703125 C 8.179688 -0.703125 9.046875 -0.972656 9.703125 -1.515625 C 10.367188 -2.054688 10.703125 -2.867188 10.703125 -3.953125 Z M 10.703125 -3.953125 "/></g></g></g><g fill="#ffffff" fill-opacity="1"><g transform="translate(205.875477, 33.614805)"><g><path d="M 1.625 -0.234375 C 2 -0.234375 2.316406 -0.351562 2.578125 -0.59375 C 2.835938 -0.84375 2.976562 -1.140625 3 -1.484375 L 3 -12.671875 C 3 -13.015625 2.863281 -13.304688 2.59375 -13.546875 C 2.320312 -13.785156 2 -13.90625 1.625 -13.90625 L 1.296875 -13.90625 L 1.296875 -14.140625 L 8.171875 -14.140625 C 8.816406 -14.140625 9.382812 -14.1875 9.875 -14.28125 C 10.363281 -14.375 10.675781 -14.453125 10.8125 -14.515625 L 10.8125 -11.828125 L 10.5625 -11.859375 L 10.5625 -12.203125 C 10.5625 -12.535156 10.445312 -12.816406 10.21875 -13.046875 C 10 -13.285156 9.71875 -13.40625 9.375 -13.40625 L 4.484375 -13.40625 L 4.484375 -7.421875 L 8.5 -7.421875 C 8.820312 -7.421875 9.0625 -7.515625 9.21875 -7.703125 C 9.382812 -7.890625 9.46875 -8.125 9.46875 -8.40625 L 9.46875 -8.71875 L 9.734375 -8.71875 L 9.734375 -5.421875 L 9.46875 -5.421875 L 9.46875 -5.71875 C 9.46875 -6.164062 9.304688 -6.46875 8.984375 -6.625 C 8.847656 -6.664062 8.710938 -6.695312 8.578125 -6.71875 L 4.484375 -6.71875 L 4.484375 -0.734375 L 8.171875 -0.734375 C 8.898438 -0.734375 9.507812 -0.859375 10 -1.109375 C 10.5 -1.359375 10.875 -1.65625 11.125 -2 C 11.382812 -2.34375 11.648438 -2.800781 11.921875 -3.375 L 12.15625 -3.375 L 10.859375 0 L 1.296875 0 L 1.296875 -0.234375 Z M 1.625 -0.234375 "/></g></g></g><g fill="#ffffff" fill-opacity="1"><g transform="translate(218.738588, 33.614805)"><g><path d="M 5.703125 -13.40625 L 4.453125 -13.40625 L 4.453125 -1.515625 C 4.472656 -1.023438 4.691406 -0.65625 5.109375 -0.40625 C 5.316406 -0.289062 5.546875 -0.234375 5.796875 -0.234375 L 6.109375 -0.234375 L 6.125 0 L 1.296875 0 L 1.296875 -0.234375 L 1.625 -0.234375 C 1.988281 -0.234375 2.296875 -0.351562 2.546875 -0.59375 C 2.804688 -0.84375 2.9375 -1.140625 2.9375 -1.484375 L 2.9375 -12.671875 C 2.9375 -13.015625 2.804688 -13.304688 2.546875 -13.546875 C 2.296875 -13.785156 1.988281 -13.90625 1.625 -13.90625 L 1.296875 -13.90625 L 1.296875 -14.140625 L 7.203125 -14.140625 C 8.679688 -14.140625 9.847656 -13.800781 10.703125 -13.125 C 11.566406 -12.445312 12 -11.554688 12 -10.453125 C 12 -9.359375 11.648438 -8.441406 10.953125 -7.703125 C 10.265625 -6.960938 9.382812 -6.539062 8.3125 -6.4375 C 8.820312 -6.21875 9.425781 -5.601562 10.125 -4.59375 C 10.113281 -4.59375 10.382812 -4.242188 10.9375 -3.546875 C 11.5 -2.859375 11.945312 -2.320312 12.28125 -1.9375 C 12.625 -1.550781 12.90625 -1.257812 13.125 -1.0625 C 13.707031 -0.507812 14.375 -0.234375 15.125 -0.234375 L 15.125 0 L 14.390625 0 C 13.148438 0 12.175781 -0.242188 11.46875 -0.734375 C 10.9375 -1.085938 10.453125 -1.535156 10.015625 -2.078125 C 9.921875 -2.203125 9.523438 -2.753906 8.828125 -3.734375 C 8.128906 -4.710938 7.753906 -5.234375 7.703125 -5.296875 C 6.859375 -6.347656 6.066406 -6.875 5.328125 -6.875 L 5.328125 -7.109375 C 7.160156 -7.109375 8.265625 -7.207031 8.640625 -7.40625 C 9.160156 -7.664062 9.515625 -7.945312 9.703125 -8.25 C 10.097656 -8.875 10.296875 -9.566406 10.296875 -10.328125 C 10.296875 -11.273438 10.007812 -12.007812 9.4375 -12.53125 C 8.875 -13.050781 8.113281 -13.335938 7.15625 -13.390625 C 6.738281 -13.398438 6.253906 -13.40625 5.703125 -13.40625 Z M 5.703125 -13.40625 "/></g></g></g><g fill="#ffffff" fill-opacity="1"><g transform="translate(233.50996, 33.614805)"><g><path d="M 7.59375 -13.453125 L 7.59375 -1.484375 C 7.601562 -0.992188 7.835938 -0.632812 8.296875 -0.40625 C 8.492188 -0.289062 8.722656 -0.234375 8.984375 -0.234375 L 9.234375 -0.234375 L 9.234375 0 L 4.375 0 L 4.375 -0.234375 L 4.671875 -0.234375 C 5.046875 -0.234375 5.363281 -0.359375 5.625 -0.609375 C 5.894531 -0.859375 6.039062 -1.160156 6.0625 -1.515625 L 6.0625 -13.453125 L 1.796875 -13.453125 C 1.429688 -13.453125 1.140625 -13.332031 0.921875 -13.09375 C 0.710938 -12.863281 0.609375 -12.582031 0.609375 -12.25 L 0.609375 -11.875 L 0.359375 -11.875 L 0.359375 -14.53125 C 0.671875 -14.40625 1.113281 -14.3125 1.6875 -14.25 C 2.257812 -14.1875 2.6875 -14.15625 2.96875 -14.15625 L 10.65625 -14.15625 C 11.78125 -14.15625 12.660156 -14.28125 13.296875 -14.53125 L 13.296875 -11.875 L 13.03125 -11.875 L 13.03125 -12.25 C 13.03125 -12.582031 12.921875 -12.863281 12.703125 -13.09375 C 12.484375 -13.332031 12.203125 -13.453125 11.859375 -13.453125 Z M 7.59375 -13.453125 "/></g></g></g><g fill="#ffffff" fill-opacity="1"><g transform="translate(247.126947, 33.614805)"><g/></g></g><g fill="#ffffff" fill-opacity="1"><g transform="translate(253.016651, 33.614805)"><g><path d="M 6.265625 -15.765625 L 4.765625 -15.765625 L 4.765625 -1.71875 C 4.765625 -1.3125 4.90625 -0.960938 5.1875 -0.671875 C 5.476562 -0.378906 5.835938 -0.234375 6.265625 -0.234375 L 6.546875 -0.234375 L 6.578125 0 L 1.40625 0 L 1.40625 -0.234375 L 1.71875 -0.234375 C 2.125 -0.234375 2.472656 -0.375 2.765625 -0.65625 C 3.054688 -0.9375 3.210938 -1.285156 3.234375 -1.703125 L 3.234375 -14.78125 C 3.210938 -15.1875 3.054688 -15.535156 2.765625 -15.828125 C 2.472656 -16.117188 2.125 -16.265625 1.71875 -16.265625 L 1.40625 -16.265625 L 1.40625 -16.5 L 7.78125 -16.5 C 9.207031 -16.5 10.328125 -16.097656 11.140625 -15.296875 C 11.960938 -14.503906 12.375 -13.476562 12.375 -12.21875 C 12.375 -10.957031 11.984375 -9.863281 11.203125 -8.9375 C 10.421875 -8.019531 9.472656 -7.5625 8.359375 -7.5625 C 8.597656 -7.457031 8.878906 -7.242188 9.203125 -6.921875 C 9.523438 -6.597656 9.8125 -6.265625 10.0625 -5.921875 C 11.414062 -3.984375 12.296875 -2.789062 12.703125 -2.34375 C 13.109375 -1.894531 13.394531 -1.585938 13.5625 -1.421875 C 13.738281 -1.253906 13.925781 -1.09375 14.125 -0.9375 C 14.332031 -0.78125 14.539062 -0.65625 14.75 -0.5625 C 15.207031 -0.34375 15.695312 -0.234375 16.21875 -0.234375 L 16.21875 0 L 14.921875 0 C 14.242188 0 13.613281 -0.117188 13.03125 -0.359375 C 12.445312 -0.609375 12.007812 -0.863281 11.71875 -1.125 C 11.425781 -1.382812 11.175781 -1.632812 10.96875 -1.875 C 10.757812 -2.113281 10.175781 -2.925781 9.21875 -4.3125 C 8.257812 -5.695312 7.695312 -6.484375 7.53125 -6.671875 C 7.375 -6.867188 7.210938 -7.0625 7.046875 -7.25 C 6.546875 -7.789062 6.039062 -8.0625 5.53125 -8.0625 L 5.53125 -8.296875 C 5.65625 -8.273438 5.820312 -8.265625 6.03125 -8.265625 C 6.238281 -8.265625 6.488281 -8.273438 6.78125 -8.296875 C 8.726562 -8.335938 9.957031 -9.15625 10.46875 -10.75 C 10.5625 -11.0625 10.609375 -11.351562 10.609375 -11.625 C 10.609375 -11.90625 10.609375 -12.082031 10.609375 -12.15625 C 10.578125 -13.207031 10.300781 -14.054688 9.78125 -14.703125 C 9.257812 -15.347656 8.5625 -15.691406 7.6875 -15.734375 C 7.300781 -15.753906 6.828125 -15.765625 6.265625 -15.765625 Z M 6.265625 -15.765625 "/></g></g></g><g fill="#ffffff" fill-opacity="1"><g transform="translate(268.965959, 33.614805)"><g><path d="M 1.625 -0.234375 C 2 -0.234375 2.316406 -0.351562 2.578125 -0.59375 C 2.835938 -0.84375 2.976562 -1.140625 3 -1.484375 L 3 -12.671875 C 3 -13.015625 2.863281 -13.304688 2.59375 -13.546875 C 2.320312 -13.785156 2 -13.90625 1.625 -13.90625 L 1.296875 -13.90625 L 1.296875 -14.140625 L 8.171875 -14.140625 C 8.816406 -14.140625 9.382812 -14.1875 9.875 -14.28125 C 10.363281 -14.375 10.675781 -14.453125 10.8125 -14.515625 L 10.8125 -11.828125 L 10.5625 -11.859375 L 10.5625 -12.203125 C 10.5625 -12.535156 10.445312 -12.816406 10.21875 -13.046875 C 10 -13.285156 9.71875 -13.40625 9.375 -13.40625 L 4.484375 -13.40625 L 4.484375 -7.421875 L 8.5 -7.421875 C 8.820312 -7.421875 9.0625 -7.515625 9.21875 -7.703125 C 9.382812 -7.890625 9.46875 -8.125 9.46875 -8.40625 L 9.46875 -8.71875 L 9.734375 -8.71875 L 9.734375 -5.421875 L 9.46875 -5.421875 L 9.46875 -5.71875 C 9.46875 -6.164062 9.304688 -6.46875 8.984375 -6.625 C 8.847656 -6.664062 8.710938 -6.695312 8.578125 -6.71875 L 4.484375 -6.71875 L 4.484375 -0.734375 L 8.171875 -0.734375 C 8.898438 -0.734375 9.507812 -0.859375 10 -1.109375 C 10.5 -1.359375 10.875 -1.65625 11.125 -2 C 11.382812 -2.34375 11.648438 -2.800781 11.921875 -3.375 L 12.15625 -3.375 L 10.859375 0 L 1.296875 0 L 1.296875 -0.234375 Z M 1.625 -0.234375 "/></g></g></g><g fill="#ffffff" fill-opacity="1"><g transform="translate(281.829082, 33.614805)"><g><path d="M 15.546875 -0.234375 L 15.734375 -0.234375 L 15.734375 0 L 10.90625 0 L 10.90625 -0.234375 L 11.09375 -0.234375 C 11.394531 -0.234375 11.625 -0.332031 11.78125 -0.53125 C 11.9375 -0.738281 12.015625 -0.929688 12.015625 -1.109375 C 12.015625 -1.296875 11.984375 -1.476562 11.921875 -1.65625 L 10.625 -4.78125 L 4.671875 -4.78125 L 3.375 -1.71875 C 3.289062 -1.507812 3.25 -1.316406 3.25 -1.140625 C 3.25 -0.960938 3.328125 -0.765625 3.484375 -0.546875 C 3.640625 -0.335938 3.875 -0.234375 4.1875 -0.234375 L 4.375 -0.234375 L 4.375 0 L -0.125 0 L -0.125 -0.234375 L 0.078125 -0.234375 C 0.398438 -0.234375 0.726562 -0.347656 1.0625 -0.578125 C 1.40625 -0.804688 1.6875 -1.148438 1.90625 -1.609375 C 5.34375 -8.953125 7.132812 -12.796875 7.28125 -13.140625 C 7.550781 -13.804688 7.691406 -14.25 7.703125 -14.46875 L 7.921875 -14.46875 L 13.734375 -1.609375 C 14.191406 -0.691406 14.796875 -0.234375 15.546875 -0.234375 Z M 4.96875 -5.484375 L 10.34375 -5.484375 L 7.703125 -11.953125 Z M 4.96875 -5.484375 "/></g></g></g><g fill="#ffffff" fill-opacity="1"><g transform="translate(297.448573, 33.614805)"><g><path d="M 1.625 -0.234375 C 2 -0.234375 2.316406 -0.351562 2.578125 -0.59375 C 2.835938 -0.84375 2.976562 -1.140625 3 -1.484375 L 3 -12.625 C 2.976562 -12.96875 2.828125 -13.265625 2.546875 -13.515625 C 2.273438 -13.773438 1.953125 -13.90625 1.578125 -13.90625 L 1.296875 -13.90625 L 1.296875 -14.140625 L 6.171875 -14.140625 L 6.171875 -13.90625 L 5.890625 -13.90625 C 5.515625 -13.90625 5.1875 -13.773438 4.90625 -13.515625 C 4.632812 -13.265625 4.5 -12.96875 4.5 -12.625 L 4.5 -0.734375 L 8.171875 -0.734375 C 8.898438 -0.734375 9.515625 -0.859375 10.015625 -1.109375 C 10.515625 -1.359375 10.894531 -1.65625 11.15625 -2 C 11.414062 -2.34375 11.671875 -2.800781 11.921875 -3.375 L 12.15625 -3.375 L 10.859375 0 L 1.296875 0 L 1.296875 -0.234375 Z M 1.625 -0.234375 "/></g></g></g><g fill="#ffffff" fill-opacity="1"><g transform="translate(148.386121, 66.408554)"><g><path d="M 1.625 -0.234375 C 2 -0.234375 2.316406 -0.351562 2.578125 -0.59375 C 2.835938 -0.84375 2.976562 -1.140625 3 -1.484375 L 3 -12.671875 C 3 -13.015625 2.863281 -13.304688 2.59375 -13.546875 C 2.320312 -13.785156 2 -13.90625 1.625 -13.90625 L 1.296875 -13.90625 L 1.296875 -14.140625 L 8.171875 -14.140625 C 8.816406 -14.140625 9.382812 -14.1875 9.875 -14.28125 C 10.363281 -14.375 10.675781 -14.453125 10.8125 -14.515625 L 10.8125 -11.828125 L 10.5625 -11.859375 L 10.5625 -12.203125 C 10.5625 -12.535156 10.445312 -12.816406 10.21875 -13.046875 C 10 -13.285156 9.71875 -13.40625 9.375 -13.40625 L 4.484375 -13.40625 L 4.484375 -7.421875 L 8.5 -7.421875 C 8.820312 -7.421875 9.0625 -7.515625 9.21875 -7.703125 C 9.382812 -7.890625 9.46875 -8.125 9.46875 -8.40625 L 9.46875 -8.71875 L 9.734375 -8.71875 L 9.734375 -5.421875 L 9.46875 -5.421875 L 9.46875 -5.71875 C 9.46875 -6.164062 9.304688 -6.46875 8.984375 -6.625 C 8.847656 -6.664062 8.710938 -6.695312 8.578125 -6.71875 L 4.484375 -6.71875 L 4.484375 -0.734375 L 8.171875 -0.734375 C 8.898438 -0.734375 9.507812 -0.859375 10 -1.109375 C 10.5 -1.359375 10.875 -1.65625 11.125 -2 C 11.382812 -2.34375 11.648438 -2.800781 11.921875 -3.375 L 12.15625 -3.375 L 10.859375 0 L 1.296875 0 L 1.296875 -0.234375 Z M 1.625 -0.234375 "/></g></g></g><g fill="#ffffff" fill-opacity="1"><g transform="translate(161.249233, 66.408554)"><g><path d="M 1.359375 -0.78125 C 1.316406 -0.96875 1.296875 -1.347656 1.296875 -1.921875 C 1.296875 -2.503906 1.398438 -3.097656 1.609375 -3.703125 L 1.890625 -3.703125 C 1.867188 -3.554688 1.859375 -3.414062 1.859375 -3.28125 C 1.859375 -2.425781 2.132812 -1.726562 2.6875 -1.1875 C 3.25 -0.644531 4.023438 -0.375 5.015625 -0.375 C 6.054688 -0.375 6.863281 -0.613281 7.4375 -1.09375 C 8.019531 -1.570312 8.3125 -2.191406 8.3125 -2.953125 C 8.3125 -3.710938 8.03125 -4.347656 7.46875 -4.859375 L 2.75 -8.484375 C 2 -9.128906 1.625 -9.992188 1.625 -11.078125 C 1.625 -11.691406 1.789062 -12.253906 2.125 -12.765625 C 2.46875 -13.285156 2.941406 -13.695312 3.546875 -14 C 4.148438 -14.3125 4.859375 -14.46875 5.671875 -14.46875 C 6.492188 -14.46875 7.21875 -14.394531 7.84375 -14.25 L 8.625 -14.25 L 8.671875 -11.6875 L 8.40625 -11.6875 C 8.40625 -12.34375 8.175781 -12.851562 7.71875 -13.21875 C 7.269531 -13.582031 6.617188 -13.765625 5.765625 -13.765625 C 4.921875 -13.765625 4.222656 -13.546875 3.671875 -13.109375 C 3.117188 -12.679688 2.84375 -12.125 2.84375 -11.4375 C 2.84375 -10.757812 3.148438 -10.164062 3.765625 -9.65625 L 8.53125 -5.984375 C 9.25 -5.390625 9.609375 -4.554688 9.609375 -3.484375 C 9.609375 -2.421875 9.203125 -1.519531 8.390625 -0.78125 C 7.585938 -0.0390625 6.601562 0.328125 5.4375 0.328125 C 4.664062 0.328125 3.894531 0.234375 3.125 0.046875 C 2.363281 -0.140625 1.773438 -0.414062 1.359375 -0.78125 Z M 1.359375 -0.78125 "/></g></g></g><g fill="#ffffff" fill-opacity="1"><g transform="translate(172.133404, 66.408554)"><g><path d="M 7.59375 -13.453125 L 7.59375 -1.484375 C 7.601562 -0.992188 7.835938 -0.632812 8.296875 -0.40625 C 8.492188 -0.289062 8.722656 -0.234375 8.984375 -0.234375 L 9.234375 -0.234375 L 9.234375 0 L 4.375 0 L 4.375 -0.234375 L 4.671875 -0.234375 C 5.046875 -0.234375 5.363281 -0.359375 5.625 -0.609375 C 5.894531 -0.859375 6.039062 -1.160156 6.0625 -1.515625 L 6.0625 -13.453125 L 1.796875 -13.453125 C 1.429688 -13.453125 1.140625 -13.332031 0.921875 -13.09375 C 0.710938 -12.863281 0.609375 -12.582031 0.609375 -12.25 L 0.609375 -11.875 L 0.359375 -11.875 L 0.359375 -14.53125 C 0.671875 -14.40625 1.113281 -14.3125 1.6875 -14.25 C 2.257812 -14.1875 2.6875 -14.15625 2.96875 -14.15625 L 10.65625 -14.15625 C 11.78125 -14.15625 12.660156 -14.28125 13.296875 -14.53125 L 13.296875 -11.875 L 13.03125 -11.875 L 13.03125 -12.25 C 13.03125 -12.582031 12.921875 -12.863281 12.703125 -13.09375 C 12.484375 -13.332031 12.203125 -13.453125 11.859375 -13.453125 Z M 7.59375 -13.453125 "/></g></g></g><g fill="#ffffff" fill-opacity="1"><g transform="translate(185.750391, 66.408554)"><g><path d="M 15.546875 -0.234375 L 15.734375 -0.234375 L 15.734375 0 L 10.90625 0 L 10.90625 -0.234375 L 11.09375 -0.234375 C 11.394531 -0.234375 11.625 -0.332031 11.78125 -0.53125 C 11.9375 -0.738281 12.015625 -0.929688 12.015625 -1.109375 C 12.015625 -1.296875 11.984375 -1.476562 11.921875 -1.65625 L 10.625 -4.78125 L 4.671875 -4.78125 L 3.375 -1.71875 C 3.289062 -1.507812 3.25 -1.316406 3.25 -1.140625 C 3.25 -0.960938 3.328125 -0.765625 3.484375 -0.546875 C 3.640625 -0.335938 3.875 -0.234375 4.1875 -0.234375 L 4.375 -0.234375 L 4.375 0 L -0.125 0 L -0.125 -0.234375 L 0.078125 -0.234375 C 0.398438 -0.234375 0.726562 -0.347656 1.0625 -0.578125 C 1.40625 -0.804688 1.6875 -1.148438 1.90625 -1.609375 C 5.34375 -8.953125 7.132812 -12.796875 7.28125 -13.140625 C 7.550781 -13.804688 7.691406 -14.25 7.703125 -14.46875 L 7.921875 -14.46875 L 13.734375 -1.609375 C 14.191406 -0.691406 14.796875 -0.234375 15.546875 -0.234375 Z M 4.96875 -5.484375 L 10.34375 -5.484375 L 7.703125 -11.953125 Z M 4.96875 -5.484375 "/></g></g></g><g fill="#ffffff" fill-opacity="1"><g transform="translate(201.369883, 66.408554)"><g><path d="M 7.59375 -13.453125 L 7.59375 -1.484375 C 7.601562 -0.992188 7.835938 -0.632812 8.296875 -0.40625 C 8.492188 -0.289062 8.722656 -0.234375 8.984375 -0.234375 L 9.234375 -0.234375 L 9.234375 0 L 4.375 0 L 4.375 -0.234375 L 4.671875 -0.234375 C 5.046875 -0.234375 5.363281 -0.359375 5.625 -0.609375 C 5.894531 -0.859375 6.039062 -1.160156 6.0625 -1.515625 L 6.0625 -13.453125 L 1.796875 -13.453125 C 1.429688 -13.453125 1.140625 -13.332031 0.921875 -13.09375 C 0.710938 -12.863281 0.609375 -12.582031 0.609375 -12.25 L 0.609375 -11.875 L 0.359375 -11.875 L 0.359375 -14.53125 C 0.671875 -14.40625 1.113281 -14.3125 1.6875 -14.25 C 2.257812 -14.1875 2.6875 -14.15625 2.96875 -14.15625 L 10.65625 -14.15625 C 11.78125 -14.15625 12.660156 -14.28125 13.296875 -14.53125 L 13.296875 -11.875 L 13.03125 -11.875 L 13.03125 -12.25 C 13.03125 -12.582031 12.921875 -12.863281 12.703125 -13.09375 C 12.484375 -13.332031 12.203125 -13.453125 11.859375 -13.453125 Z M 7.59375 -13.453125 "/></g></g></g><g fill="#ffffff" fill-opacity="1"><g transform="translate(214.98687, 66.408554)"><g><path d="M 1.625 -0.234375 C 2 -0.234375 2.316406 -0.351562 2.578125 -0.59375 C 2.835938 -0.84375 2.976562 -1.140625 3 -1.484375 L 3 -12.671875 C 3 -13.015625 2.863281 -13.304688 2.59375 -13.546875 C 2.320312 -13.785156 2 -13.90625 1.625 -13.90625 L 1.296875 -13.90625 L 1.296875 -14.140625 L 8.171875 -14.140625 C 8.816406 -14.140625 9.382812 -14.1875 9.875 -14.28125 C 10.363281 -14.375 10.675781 -14.453125 10.8125 -14.515625 L 10.8125 -11.828125 L 10.5625 -11.859375 L 10.5625 -12.203125 C 10.5625 -12.535156 10.445312 -12.816406 10.21875 -13.046875 C 10 -13.285156 9.71875 -13.40625 9.375 -13.40625 L 4.484375 -13.40625 L 4.484375 -7.421875 L 8.5 -7.421875 C 8.820312 -7.421875 9.0625 -7.515625 9.21875 -7.703125 C 9.382812 -7.890625 9.46875 -8.125 9.46875 -8.40625 L 9.46875 -8.71875 L 9.734375 -8.71875 L 9.734375 -5.421875 L 9.46875 -5.421875 L 9.46875 -5.71875 C 9.46875 -6.164062 9.304688 -6.46875 8.984375 -6.625 C 8.847656 -6.664062 8.710938 -6.695312 8.578125 -6.71875 L 4.484375 -6.71875 L 4.484375 -0.734375 L 8.171875 -0.734375 C 8.898438 -0.734375 9.507812 -0.859375 10 -1.109375 C 10.5 -1.359375 10.875 -1.65625 11.125 -2 C 11.382812 -2.34375 11.648438 -2.800781 11.921875 -3.375 L 12.15625 -3.375 L 10.859375 0 L 1.296875 0 L 1.296875 -0.234375 Z M 1.625 -0.234375 "/></g></g></g><g fill="#ffffff" fill-opacity="1"><g transform="translate(227.85507, 66.408554)"><g/></g></g></svg>