<svg xmlns="http://www.w3.org/2000/svg" xmlns:xlink="http://www.w3.org/1999/xlink" width="431" zoomAndPan="magnify" viewBox="0 0 323.25 79.499998" height="106" preserveAspectRatio="xMidYMid meet" version="1.0"><defs><g/><clipPath id="83ebe65ee5"><path d="M 2 5 L 72.933594 5 L 72.933594 78 L 2 78 Z M 2 5 " clip-rule="nonzero"/></clipPath><clipPath id="92c6affe8a"><path d="M 26 13 L 42 13 L 42 68 L 26 68 Z M 26 13 " clip-rule="nonzero"/></clipPath><clipPath id="e75335606c"><path d="M 41.371094 67.546875 L 41.371094 13.4375 L 26.730469 23.21875 L 26.730469 62.203125 C 31.125 65.042969 36.121094 66.894531 41.371094 67.546875 Z M 41.371094 67.546875 " clip-rule="evenodd"/></clipPath><linearGradient x1="198.399" gradientTransform="matrix(0.158091, 0, 0, 0.158483, 2.684848, 2.139513)" y1="71.300016" x2="198.399" gradientUnits="userSpaceOnUse" y2="412.700026" id="0ae376d7ce"><stop stop-opacity="1" stop-color="rgb(0%, 63.954163%, 81.472778%)" offset="0"/><stop stop-opacity="1" stop-color="rgb(0%, 63.844299%, 81.381226%)" offset="0.0078125"/><stop stop-opacity="1" stop-color="rgb(0%, 63.626099%, 81.19812%)" offset="0.015625"/><stop stop-opacity="1" stop-color="rgb(0%, 63.407898%, 81.015015%)" offset="0.0234375"/><stop stop-opacity="1" stop-color="rgb(0%, 63.189697%, 80.833435%)" offset="0.03125"/><stop stop-opacity="1" stop-color="rgb(0%, 62.971497%, 80.65033%)" offset="0.0390625"/><stop stop-opacity="1" stop-color="rgb(0%, 62.754822%, 80.46875%)" offset="0.046875"/><stop stop-opacity="1" stop-color="rgb(0%, 62.536621%, 80.285645%)" offset="0.0546875"/><stop stop-opacity="1" stop-color="rgb(0%, 62.31842%, 80.104065%)" offset="0.0625"/><stop stop-opacity="1" stop-color="rgb(0%, 62.10022%, 79.920959%)" offset="0.0703125"/><stop stop-opacity="1" stop-color="rgb(0%, 61.882019%, 79.73938%)" offset="0.078125"/><stop stop-opacity="1" stop-color="rgb(0%, 61.663818%, 79.556274%)" offset="0.0859375"/><stop stop-opacity="1" stop-color="rgb(0%, 61.445618%, 79.374695%)" offset="0.09375"/><stop stop-opacity="1" stop-color="rgb(0%, 61.227417%, 79.191589%)" offset="0.101562"/><stop stop-opacity="1" stop-color="rgb(0%, 61.009216%, 79.01001%)" offset="0.109375"/><stop stop-opacity="1" stop-color="rgb(0%, 60.792542%, 78.826904%)" offset="0.117188"/><stop stop-opacity="1" stop-color="rgb(0%, 60.574341%, 78.645325%)" offset="0.125"/><stop stop-opacity="1" stop-color="rgb(0%, 60.35614%, 78.462219%)" offset="0.132813"/><stop stop-opacity="1" stop-color="rgb(0%, 60.137939%, 78.28064%)" offset="0.140625"/><stop stop-opacity="1" stop-color="rgb(0%, 59.919739%, 78.097534%)" offset="0.148438"/><stop stop-opacity="1" stop-color="rgb(0%, 59.701538%, 77.915955%)" offset="0.15625"/><stop stop-opacity="1" stop-color="rgb(0%, 59.483337%, 77.732849%)" offset="0.164063"/><stop stop-opacity="1" stop-color="rgb(0%, 59.265137%, 77.55127%)" offset="0.171875"/><stop stop-opacity="1" stop-color="rgb(0%, 59.046936%, 77.368164%)" offset="0.179688"/><stop stop-opacity="1" stop-color="rgb(0%, 58.830261%, 77.185059%)" offset="0.1875"/><stop stop-opacity="1" stop-color="rgb(0%, 58.612061%, 77.003479%)" offset="0.195312"/><stop stop-opacity="1" stop-color="rgb(0%, 58.39386%, 76.820374%)" offset="0.203125"/><stop stop-opacity="1" stop-color="rgb(0%, 58.175659%, 76.638794%)" offset="0.210937"/><stop stop-opacity="1" stop-color="rgb(0%, 57.957458%, 76.455688%)" offset="0.21875"/><stop stop-opacity="1" stop-color="rgb(0%, 57.739258%, 76.274109%)" offset="0.226562"/><stop stop-opacity="1" stop-color="rgb(0%, 57.521057%, 76.091003%)" offset="0.234375"/><stop stop-opacity="1" stop-color="rgb(0%, 57.302856%, 75.909424%)" offset="0.242188"/><stop stop-opacity="1" stop-color="rgb(0%, 57.084656%, 75.726318%)" offset="0.25"/><stop stop-opacity="1" stop-color="rgb(0%, 56.867981%, 75.544739%)" offset="0.257812"/><stop stop-opacity="1" stop-color="rgb(0%, 56.64978%, 75.361633%)" offset="0.265625"/><stop stop-opacity="1" stop-color="rgb(0%, 56.43158%, 75.180054%)" offset="0.273437"/><stop stop-opacity="1" stop-color="rgb(0%, 56.213379%, 74.996948%)" offset="0.28125"/><stop stop-opacity="1" stop-color="rgb(0%, 55.995178%, 74.815369%)" offset="0.289062"/><stop stop-opacity="1" stop-color="rgb(0%, 55.776978%, 74.632263%)" offset="0.296875"/><stop stop-opacity="1" stop-color="rgb(0%, 55.558777%, 74.450684%)" offset="0.304687"/><stop stop-opacity="1" stop-color="rgb(0%, 55.340576%, 74.267578%)" offset="0.3125"/><stop stop-opacity="1" stop-color="rgb(0%, 55.122375%, 74.085999%)" offset="0.320312"/><stop stop-opacity="1" stop-color="rgb(0%, 54.905701%, 73.902893%)" offset="0.328125"/><stop stop-opacity="1" stop-color="rgb(0%, 54.6875%, 73.721313%)" offset="0.335937"/><stop stop-opacity="1" stop-color="rgb(0%, 54.469299%, 73.538208%)" offset="0.34375"/><stop stop-opacity="1" stop-color="rgb(0%, 54.251099%, 73.355103%)" offset="0.351562"/><stop stop-opacity="1" stop-color="rgb(0%, 54.032898%, 73.173523%)" offset="0.359375"/><stop stop-opacity="1" stop-color="rgb(0%, 53.814697%, 72.990417%)" offset="0.367187"/><stop stop-opacity="1" stop-color="rgb(0%, 53.596497%, 72.808838%)" offset="0.375"/><stop stop-opacity="1" stop-color="rgb(0%, 53.378296%, 72.625732%)" offset="0.382812"/><stop stop-opacity="1" stop-color="rgb(0%, 53.160095%, 72.444153%)" offset="0.390625"/><stop stop-opacity="1" stop-color="rgb(0%, 52.941895%, 72.261047%)" offset="0.398437"/><stop stop-opacity="1" stop-color="rgb(0%, 52.72522%, 72.079468%)" offset="0.40625"/><stop stop-opacity="1" stop-color="rgb(0%, 52.507019%, 71.896362%)" offset="0.414062"/><stop stop-opacity="1" stop-color="rgb(0%, 52.288818%, 71.714783%)" offset="0.421875"/><stop stop-opacity="1" stop-color="rgb(0%, 52.070618%, 71.531677%)" offset="0.429688"/><stop stop-opacity="1" stop-color="rgb(0%, 51.852417%, 71.350098%)" offset="0.4375"/><stop stop-opacity="1" stop-color="rgb(0%, 51.634216%, 71.166992%)" offset="0.445312"/><stop stop-opacity="1" stop-color="rgb(0%, 51.416016%, 70.985413%)" offset="0.453125"/><stop stop-opacity="1" stop-color="rgb(0%, 51.197815%, 70.802307%)" offset="0.460938"/><stop stop-opacity="1" stop-color="rgb(0%, 50.979614%, 70.620728%)" offset="0.46875"/><stop stop-opacity="1" stop-color="rgb(0%, 50.762939%, 70.437622%)" offset="0.476562"/><stop stop-opacity="1" stop-color="rgb(0%, 50.544739%, 70.256042%)" offset="0.484375"/><stop stop-opacity="1" stop-color="rgb(0%, 50.326538%, 70.072937%)" offset="0.492188"/><stop stop-opacity="1" stop-color="rgb(0%, 50.108337%, 69.891357%)" offset="0.5"/><stop stop-opacity="1" stop-color="rgb(0%, 49.890137%, 69.708252%)" offset="0.507812"/><stop stop-opacity="1" stop-color="rgb(0%, 49.671936%, 69.525146%)" offset="0.515625"/><stop stop-opacity="1" stop-color="rgb(0%, 49.453735%, 69.343567%)" offset="0.523437"/><stop stop-opacity="1" stop-color="rgb(0%, 49.235535%, 69.160461%)" offset="0.53125"/><stop stop-opacity="1" stop-color="rgb(0%, 49.017334%, 68.978882%)" offset="0.539062"/><stop stop-opacity="1" stop-color="rgb(0%, 48.800659%, 68.795776%)" offset="0.546875"/><stop stop-opacity="1" stop-color="rgb(0%, 48.582458%, 68.614197%)" offset="0.554687"/><stop stop-opacity="1" stop-color="rgb(0%, 48.364258%, 68.431091%)" offset="0.5625"/><stop stop-opacity="1" stop-color="rgb(0%, 48.146057%, 68.249512%)" offset="0.570312"/><stop stop-opacity="1" stop-color="rgb(0%, 47.927856%, 68.066406%)" offset="0.578125"/><stop stop-opacity="1" stop-color="rgb(0%, 47.709656%, 67.884827%)" offset="0.585938"/><stop stop-opacity="1" stop-color="rgb(0%, 47.491455%, 67.701721%)" offset="0.59375"/><stop stop-opacity="1" stop-color="rgb(0%, 47.273254%, 67.520142%)" offset="0.601562"/><stop stop-opacity="1" stop-color="rgb(0%, 47.055054%, 67.337036%)" offset="0.609375"/><stop stop-opacity="1" stop-color="rgb(0%, 46.838379%, 67.155457%)" offset="0.617188"/><stop stop-opacity="1" stop-color="rgb(0%, 46.620178%, 66.972351%)" offset="0.625"/><stop stop-opacity="1" stop-color="rgb(0%, 46.401978%, 66.790771%)" offset="0.632812"/><stop stop-opacity="1" stop-color="rgb(0%, 46.183777%, 66.607666%)" offset="0.640625"/><stop stop-opacity="1" stop-color="rgb(0%, 45.965576%, 66.426086%)" offset="0.648438"/><stop stop-opacity="1" stop-color="rgb(0%, 45.747375%, 66.242981%)" offset="0.65625"/><stop stop-opacity="1" stop-color="rgb(0%, 45.529175%, 66.059875%)" offset="0.664062"/><stop stop-opacity="1" stop-color="rgb(0%, 45.310974%, 65.878296%)" offset="0.671875"/><stop stop-opacity="1" stop-color="rgb(0%, 45.092773%, 65.69519%)" offset="0.679688"/><stop stop-opacity="1" stop-color="rgb(0%, 44.876099%, 65.513611%)" offset="0.6875"/><stop stop-opacity="1" stop-color="rgb(0%, 44.657898%, 65.330505%)" offset="0.695312"/><stop stop-opacity="1" stop-color="rgb(0%, 44.439697%, 65.148926%)" offset="0.703125"/><stop stop-opacity="1" stop-color="rgb(0%, 44.221497%, 64.96582%)" offset="0.710938"/><stop stop-opacity="1" stop-color="rgb(0%, 44.003296%, 64.784241%)" offset="0.71875"/><stop stop-opacity="1" stop-color="rgb(0%, 43.785095%, 64.601135%)" offset="0.726562"/><stop stop-opacity="1" stop-color="rgb(0%, 43.566895%, 64.419556%)" offset="0.734375"/><stop stop-opacity="1" stop-color="rgb(0%, 43.348694%, 64.23645%)" offset="0.742188"/><stop stop-opacity="1" stop-color="rgb(0%, 43.130493%, 64.054871%)" offset="0.75"/><stop stop-opacity="1" stop-color="rgb(0%, 42.913818%, 63.871765%)" offset="0.757812"/><stop stop-opacity="1" stop-color="rgb(0%, 42.695618%, 63.690186%)" offset="0.765625"/><stop stop-opacity="1" stop-color="rgb(0%, 42.477417%, 63.50708%)" offset="0.773437"/><stop stop-opacity="1" stop-color="rgb(0%, 42.259216%, 63.3255%)" offset="0.78125"/><stop stop-opacity="1" stop-color="rgb(0%, 42.041016%, 63.142395%)" offset="0.789062"/><stop stop-opacity="1" stop-color="rgb(0%, 41.822815%, 62.960815%)" offset="0.796875"/><stop stop-opacity="1" stop-color="rgb(0%, 41.604614%, 62.77771%)" offset="0.804687"/><stop stop-opacity="1" stop-color="rgb(0%, 41.386414%, 62.59613%)" offset="0.8125"/><stop stop-opacity="1" stop-color="rgb(0%, 41.168213%, 62.413025%)" offset="0.820312"/><stop stop-opacity="1" stop-color="rgb(0%, 40.951538%, 62.229919%)" offset="0.828125"/><stop stop-opacity="1" stop-color="rgb(0%, 40.733337%, 62.04834%)" offset="0.835937"/><stop stop-opacity="1" stop-color="rgb(0%, 40.515137%, 61.865234%)" offset="0.84375"/><stop stop-opacity="1" stop-color="rgb(0%, 40.296936%, 61.683655%)" offset="0.851562"/><stop stop-opacity="1" stop-color="rgb(0%, 40.078735%, 61.500549%)" offset="0.859375"/><stop stop-opacity="1" stop-color="rgb(0%, 39.860535%, 61.31897%)" offset="0.867188"/><stop stop-opacity="1" stop-color="rgb(0%, 39.642334%, 61.135864%)" offset="0.875"/><stop stop-opacity="1" stop-color="rgb(0%, 39.424133%, 60.954285%)" offset="0.882812"/><stop stop-opacity="1" stop-color="rgb(0%, 39.205933%, 60.771179%)" offset="0.890625"/><stop stop-opacity="1" stop-color="rgb(0%, 38.989258%, 60.5896%)" offset="0.898438"/><stop stop-opacity="1" stop-color="rgb(0%, 38.771057%, 60.406494%)" offset="0.90625"/><stop stop-opacity="1" stop-color="rgb(0%, 38.552856%, 60.224915%)" offset="0.914062"/><stop stop-opacity="1" stop-color="rgb(0%, 38.334656%, 60.041809%)" offset="0.921875"/><stop stop-opacity="1" stop-color="rgb(0%, 38.116455%, 59.860229%)" offset="0.929688"/><stop stop-opacity="1" stop-color="rgb(0%, 37.898254%, 59.677124%)" offset="0.9375"/><stop stop-opacity="1" stop-color="rgb(0%, 37.680054%, 59.495544%)" offset="0.945312"/><stop stop-opacity="1" stop-color="rgb(0%, 37.461853%, 59.312439%)" offset="0.953125"/><stop stop-opacity="1" stop-color="rgb(0%, 37.243652%, 59.130859%)" offset="0.960938"/><stop stop-opacity="1" stop-color="rgb(0%, 37.026978%, 58.947754%)" offset="0.96875"/><stop stop-opacity="1" stop-color="rgb(0%, 36.808777%, 58.766174%)" offset="0.976562"/><stop stop-opacity="1" stop-color="rgb(0%, 36.590576%, 58.583069%)" offset="0.984375"/><stop stop-opacity="1" stop-color="rgb(0%, 36.372375%, 58.399963%)" offset="0.992188"/><stop stop-opacity="1" stop-color="rgb(0%, 36.154175%, 58.218384%)" offset="1"/></linearGradient><clipPath id="cae4d8b132"><path d="M 43 38 L 54 38 L 54 68 L 43 68 Z M 43 38 " clip-rule="nonzero"/></clipPath><clipPath id="659c78699c"><path d="M 43.046875 67.71875 L 43.046875 44.835938 L 53.335938 38.050781 L 53.335938 66.976562 C 50.492188 67.609375 47.550781 67.894531 44.59375 67.800781 C 44.074219 67.78125 43.550781 67.75 43.046875 67.71875 Z M 43.046875 67.71875 " clip-rule="evenodd"/></clipPath><linearGradient x1="286.525344" gradientTransform="matrix(0.158091, 0, 0, 0.158483, 2.684848, 2.139513)" y1="415.44652" x2="289.840128" gradientUnits="userSpaceOnUse" y2="226.065108" id="2c1fe94407"><stop stop-opacity="1" stop-color="rgb(0%, 36.26709%, 58.502197%)" offset="0"/><stop stop-opacity="1" stop-color="rgb(0%, 36.413574%, 58.636475%)" offset="0.0060149"/><stop stop-opacity="1" stop-color="rgb(0%, 36.560059%, 58.772278%)" offset="0.0078125"/><stop stop-opacity="1" stop-color="rgb(0%, 36.705017%, 58.906555%)" offset="0.015625"/><stop stop-opacity="1" stop-color="rgb(0%, 36.997986%, 59.176636%)" offset="0.0234375"/><stop stop-opacity="1" stop-color="rgb(0%, 37.289429%, 59.446716%)" offset="0.03125"/><stop stop-opacity="1" stop-color="rgb(0%, 37.580872%, 59.715271%)" offset="0.0390625"/><stop stop-opacity="1" stop-color="rgb(0%, 37.87384%, 59.985352%)" offset="0.046875"/><stop stop-opacity="1" stop-color="rgb(0%, 38.165283%, 60.255432%)" offset="0.0546875"/><stop stop-opacity="1" stop-color="rgb(0%, 38.456726%, 60.525513%)" offset="0.0625"/><stop stop-opacity="1" stop-color="rgb(0%, 38.749695%, 60.795593%)" offset="0.0703125"/><stop stop-opacity="1" stop-color="rgb(0%, 39.041138%, 61.064148%)" offset="0.078125"/><stop stop-opacity="1" stop-color="rgb(0%, 39.332581%, 61.334229%)" offset="0.0859375"/><stop stop-opacity="1" stop-color="rgb(0%, 39.625549%, 61.604309%)" offset="0.09375"/><stop stop-opacity="1" stop-color="rgb(0%, 39.916992%, 61.87439%)" offset="0.101562"/><stop stop-opacity="1" stop-color="rgb(0%, 40.209961%, 62.142944%)" offset="0.109375"/><stop stop-opacity="1" stop-color="rgb(0%, 40.501404%, 62.413025%)" offset="0.117187"/><stop stop-opacity="1" stop-color="rgb(0%, 40.792847%, 62.683105%)" offset="0.125"/><stop stop-opacity="1" stop-color="rgb(0%, 41.085815%, 62.953186%)" offset="0.132813"/><stop stop-opacity="1" stop-color="rgb(0%, 41.377258%, 63.223267%)" offset="0.140625"/><stop stop-opacity="1" stop-color="rgb(0%, 41.668701%, 63.491821%)" offset="0.148438"/><stop stop-opacity="1" stop-color="rgb(0%, 41.96167%, 63.761902%)" offset="0.15625"/><stop stop-opacity="1" stop-color="rgb(0%, 42.253113%, 64.031982%)" offset="0.164063"/><stop stop-opacity="1" stop-color="rgb(0%, 42.544556%, 64.302063%)" offset="0.171875"/><stop stop-opacity="1" stop-color="rgb(0%, 42.837524%, 64.570618%)" offset="0.179688"/><stop stop-opacity="1" stop-color="rgb(0%, 43.128967%, 64.840698%)" offset="0.1875"/><stop stop-opacity="1" stop-color="rgb(0%, 43.42041%, 65.110779%)" offset="0.195313"/><stop stop-opacity="1" stop-color="rgb(0%, 43.713379%, 65.380859%)" offset="0.203125"/><stop stop-opacity="1" stop-color="rgb(0%, 44.004822%, 65.65094%)" offset="0.210938"/><stop stop-opacity="1" stop-color="rgb(0%, 44.297791%, 65.919495%)" offset="0.21875"/><stop stop-opacity="1" stop-color="rgb(0%, 44.589233%, 66.189575%)" offset="0.226562"/><stop stop-opacity="1" stop-color="rgb(0%, 44.880676%, 66.459656%)" offset="0.234375"/><stop stop-opacity="1" stop-color="rgb(0%, 45.173645%, 66.729736%)" offset="0.242188"/><stop stop-opacity="1" stop-color="rgb(0%, 45.465088%, 66.998291%)" offset="0.25"/><stop stop-opacity="1" stop-color="rgb(0%, 45.756531%, 67.268372%)" offset="0.257813"/><stop stop-opacity="1" stop-color="rgb(0%, 46.0495%, 67.538452%)" offset="0.265625"/><stop stop-opacity="1" stop-color="rgb(0%, 46.340942%, 67.808533%)" offset="0.273438"/><stop stop-opacity="1" stop-color="rgb(0%, 46.632385%, 68.078613%)" offset="0.28125"/><stop stop-opacity="1" stop-color="rgb(0%, 46.925354%, 68.347168%)" offset="0.289062"/><stop stop-opacity="1" stop-color="rgb(0%, 47.216797%, 68.617249%)" offset="0.296875"/><stop stop-opacity="1" stop-color="rgb(0%, 47.50824%, 68.887329%)" offset="0.304688"/><stop stop-opacity="1" stop-color="rgb(0%, 47.801208%, 69.15741%)" offset="0.3125"/><stop stop-opacity="1" stop-color="rgb(0%, 48.092651%, 69.425964%)" offset="0.320312"/><stop stop-opacity="1" stop-color="rgb(0%, 48.38562%, 69.696045%)" offset="0.328125"/><stop stop-opacity="1" stop-color="rgb(0%, 48.677063%, 69.966125%)" offset="0.335938"/><stop stop-opacity="1" stop-color="rgb(0%, 48.968506%, 70.236206%)" offset="0.34375"/><stop stop-opacity="1" stop-color="rgb(0%, 49.261475%, 70.506287%)" offset="0.351562"/><stop stop-opacity="1" stop-color="rgb(0%, 49.552917%, 70.774841%)" offset="0.359375"/><stop stop-opacity="1" stop-color="rgb(0%, 49.84436%, 71.044922%)" offset="0.367188"/><stop stop-opacity="1" stop-color="rgb(0%, 50.137329%, 71.315002%)" offset="0.375"/><stop stop-opacity="1" stop-color="rgb(0%, 50.428772%, 71.585083%)" offset="0.382812"/><stop stop-opacity="1" stop-color="rgb(0%, 50.720215%, 71.853638%)" offset="0.390625"/><stop stop-opacity="1" stop-color="rgb(0%, 51.013184%, 72.123718%)" offset="0.398438"/><stop stop-opacity="1" stop-color="rgb(0%, 51.304626%, 72.393799%)" offset="0.40625"/><stop stop-opacity="1" stop-color="rgb(0%, 51.596069%, 72.663879%)" offset="0.414062"/><stop stop-opacity="1" stop-color="rgb(0%, 51.889038%, 72.93396%)" offset="0.421875"/><stop stop-opacity="1" stop-color="rgb(0%, 52.180481%, 73.202515%)" offset="0.429687"/><stop stop-opacity="1" stop-color="rgb(0%, 52.47345%, 73.472595%)" offset="0.4375"/><stop stop-opacity="1" stop-color="rgb(0%, 52.764893%, 73.742676%)" offset="0.445312"/><stop stop-opacity="1" stop-color="rgb(0%, 53.056335%, 74.012756%)" offset="0.453125"/><stop stop-opacity="1" stop-color="rgb(0%, 53.349304%, 74.281311%)" offset="0.460937"/><stop stop-opacity="1" stop-color="rgb(0%, 53.640747%, 74.551392%)" offset="0.46875"/><stop stop-opacity="1" stop-color="rgb(0%, 53.93219%, 74.821472%)" offset="0.476562"/><stop stop-opacity="1" stop-color="rgb(0%, 54.225159%, 75.091553%)" offset="0.484375"/><stop stop-opacity="1" stop-color="rgb(0%, 54.516602%, 75.361633%)" offset="0.492187"/><stop stop-opacity="1" stop-color="rgb(0%, 54.808044%, 75.630188%)" offset="0.5"/><stop stop-opacity="1" stop-color="rgb(0%, 55.101013%, 75.900269%)" offset="0.507813"/><stop stop-opacity="1" stop-color="rgb(0%, 55.392456%, 76.170349%)" offset="0.515625"/><stop stop-opacity="1" stop-color="rgb(0%, 55.685425%, 76.44043%)" offset="0.523438"/><stop stop-opacity="1" stop-color="rgb(0%, 55.976868%, 76.708984%)" offset="0.53125"/><stop stop-opacity="1" stop-color="rgb(0%, 56.268311%, 76.979065%)" offset="0.539062"/><stop stop-opacity="1" stop-color="rgb(0%, 56.561279%, 77.249146%)" offset="0.546875"/><stop stop-opacity="1" stop-color="rgb(0%, 56.852722%, 77.519226%)" offset="0.554688"/><stop stop-opacity="1" stop-color="rgb(0%, 57.144165%, 77.789307%)" offset="0.5625"/><stop stop-opacity="1" stop-color="rgb(0%, 57.437134%, 78.057861%)" offset="0.570312"/><stop stop-opacity="1" stop-color="rgb(0%, 57.728577%, 78.327942%)" offset="0.578125"/><stop stop-opacity="1" stop-color="rgb(0%, 58.02002%, 78.598022%)" offset="0.585938"/><stop stop-opacity="1" stop-color="rgb(0%, 58.312988%, 78.868103%)" offset="0.59375"/><stop stop-opacity="1" stop-color="rgb(0%, 58.604431%, 79.136658%)" offset="0.601562"/><stop stop-opacity="1" stop-color="rgb(0%, 58.895874%, 79.406738%)" offset="0.609375"/><stop stop-opacity="1" stop-color="rgb(0%, 59.188843%, 79.676819%)" offset="0.617188"/><stop stop-opacity="1" stop-color="rgb(0%, 59.480286%, 79.946899%)" offset="0.625"/><stop stop-opacity="1" stop-color="rgb(0%, 59.773254%, 80.21698%)" offset="0.632812"/><stop stop-opacity="1" stop-color="rgb(0%, 60.064697%, 80.485535%)" offset="0.640625"/><stop stop-opacity="1" stop-color="rgb(0%, 60.35614%, 80.755615%)" offset="0.648438"/><stop stop-opacity="1" stop-color="rgb(0%, 60.649109%, 81.025696%)" offset="0.65625"/><stop stop-opacity="1" stop-color="rgb(0%, 60.940552%, 81.295776%)" offset="0.664062"/><stop stop-opacity="1" stop-color="rgb(0%, 61.231995%, 81.564331%)" offset="0.671875"/><stop stop-opacity="1" stop-color="rgb(0%, 61.524963%, 81.834412%)" offset="0.679688"/><stop stop-opacity="1" stop-color="rgb(0%, 61.816406%, 82.104492%)" offset="0.6875"/><stop stop-opacity="1" stop-color="rgb(0%, 62.107849%, 82.374573%)" offset="0.695312"/><stop stop-opacity="1" stop-color="rgb(0%, 62.400818%, 82.644653%)" offset="0.703125"/><stop stop-opacity="1" stop-color="rgb(0%, 62.692261%, 82.913208%)" offset="0.710938"/><stop stop-opacity="1" stop-color="rgb(0%, 62.983704%, 83.183289%)" offset="0.71875"/><stop stop-opacity="1" stop-color="rgb(0%, 63.276672%, 83.453369%)" offset="0.726562"/><stop stop-opacity="1" stop-color="rgb(0%, 63.568115%, 83.72345%)" offset="0.734375"/><stop stop-opacity="1" stop-color="rgb(0%, 63.861084%, 83.992004%)" offset="0.742188"/><stop stop-opacity="1" stop-color="rgb(0%, 64.152527%, 84.262085%)" offset="0.75"/><stop stop-opacity="1" stop-color="rgb(0%, 64.44397%, 84.532166%)" offset="0.757812"/><stop stop-opacity="1" stop-color="rgb(0%, 64.736938%, 84.802246%)" offset="0.765625"/><stop stop-opacity="1" stop-color="rgb(0%, 65.028381%, 85.072327%)" offset="0.773438"/><stop stop-opacity="1" stop-color="rgb(0%, 65.319824%, 85.340881%)" offset="0.78125"/><stop stop-opacity="1" stop-color="rgb(0%, 65.612793%, 85.610962%)" offset="0.789062"/><stop stop-opacity="1" stop-color="rgb(0%, 65.904236%, 85.881042%)" offset="0.796875"/><stop stop-opacity="1" stop-color="rgb(0%, 66.195679%, 86.151123%)" offset="0.804688"/><stop stop-opacity="1" stop-color="rgb(0%, 66.488647%, 86.421204%)" offset="0.8125"/><stop stop-opacity="1" stop-color="rgb(0%, 66.78009%, 86.689758%)" offset="0.820312"/><stop stop-opacity="1" stop-color="rgb(0%, 67.073059%, 86.959839%)" offset="0.828125"/><stop stop-opacity="1" stop-color="rgb(0%, 67.364502%, 87.229919%)" offset="0.835937"/><stop stop-opacity="1" stop-color="rgb(0%, 67.655945%, 87.5%)" offset="0.84375"/><stop stop-opacity="1" stop-color="rgb(0%, 67.948914%, 87.768555%)" offset="0.851562"/><stop stop-opacity="1" stop-color="rgb(0%, 68.240356%, 88.038635%)" offset="0.859375"/><stop stop-opacity="1" stop-color="rgb(0%, 68.531799%, 88.308716%)" offset="0.867187"/><stop stop-opacity="1" stop-color="rgb(0%, 68.824768%, 88.578796%)" offset="0.875"/><stop stop-opacity="1" stop-color="rgb(0%, 69.116211%, 88.848877%)" offset="0.882812"/><stop stop-opacity="1" stop-color="rgb(0%, 69.407654%, 89.117432%)" offset="0.890625"/><stop stop-opacity="1" stop-color="rgb(0%, 69.700623%, 89.387512%)" offset="0.898437"/><stop stop-opacity="1" stop-color="rgb(0%, 69.992065%, 89.657593%)" offset="0.90625"/><stop stop-opacity="1" stop-color="rgb(0%, 70.283508%, 89.927673%)" offset="0.914062"/><stop stop-opacity="1" stop-color="rgb(0%, 70.576477%, 90.196228%)" offset="0.921875"/><stop stop-opacity="1" stop-color="rgb(0%, 70.86792%, 90.466309%)" offset="0.929687"/><stop stop-opacity="1" stop-color="rgb(0%, 71.160889%, 90.736389%)" offset="0.9375"/><stop stop-opacity="1" stop-color="rgb(0%, 71.452332%, 91.00647%)" offset="0.945312"/><stop stop-opacity="1" stop-color="rgb(0%, 71.743774%, 91.27655%)" offset="0.953125"/><stop stop-opacity="1" stop-color="rgb(0%, 72.036743%, 91.545105%)" offset="0.960937"/><stop stop-opacity="1" stop-color="rgb(0%, 72.328186%, 91.815186%)" offset="0.96875"/><stop stop-opacity="1" stop-color="rgb(0%, 72.619629%, 92.085266%)" offset="0.976562"/><stop stop-opacity="1" stop-color="rgb(0%, 72.912598%, 92.355347%)" offset="0.984375"/><stop stop-opacity="1" stop-color="rgb(0%, 73.204041%, 92.623901%)" offset="0.992187"/><stop stop-opacity="1" stop-color="rgb(0%, 73.495483%, 92.893982%)" offset="0.993985"/><stop stop-opacity="1" stop-color="rgb(0%, 73.641968%, 93.029785%)" offset="1"/></linearGradient></defs><g clip-path="url(#83ebe65ee5)"><path fill="#165f95" d="M 21.925781 5.925781 C 8.171875 13.789062 0.691406 29.351562 3.144531 45.023438 C 5.59375 60.699219 17.464844 73.21875 32.960938 76.484375 C 48.453125 79.75 64.339844 73.058594 72.878906 59.683594 C 63.519531 69.90625 49.242188 74.042969 35.867188 70.414062 C 22.507812 66.785156 12.265625 55.992188 9.339844 42.410156 C 6.398438 28.859375 11.253906 14.785156 21.925781 5.925781 Z M 21.925781 5.925781 " fill-opacity="1" fill-rule="evenodd"/></g><path fill="#009ad7" d="M 24.390625 60.585938 C 14.605469 53.125 9.863281 40.761719 12.15625 28.652344 C 14.429688 16.53125 23.347656 6.75 35.171875 3.375 C 46.996094 0 59.707031 3.613281 68.007812 12.710938 C 54.601562 2.996094 36.058594 4.898438 24.898438 17.148438 C 13.734375 29.398438 13.515625 48.082031 24.390625 60.585938 Z M 24.390625 60.585938 " fill-opacity="1" fill-rule="evenodd"/><g clip-path="url(#92c6affe8a)"><g clip-path="url(#e75335606c)"><path fill="url(#0ae376d7ce)" d="M 26.730469 13.4375 L 26.730469 67.546875 L 41.371094 67.546875 L 41.371094 13.4375 Z M 26.730469 13.4375 " fill-rule="nonzero"/></g></g><path fill="#5e5f5f" d="M 43.046875 14.582031 L 43.078125 14.582031 L 45.101562 15.941406 L 45.101562 41.476562 L 43.046875 42.820312 Z M 43.046875 14.582031 " fill-opacity="1" fill-rule="evenodd"/><path fill="#5e5f5f" d="M 49.226562 18.699219 L 49.226562 38.75 L 47.15625 40.113281 L 47.15625 17.320312 Z M 49.226562 18.699219 " fill-opacity="1" fill-rule="evenodd"/><path fill="#5e5f5f" d="M 53.335938 21.441406 L 53.335938 36.039062 L 51.28125 37.402344 L 51.28125 20.078125 Z M 53.335938 21.441406 " fill-opacity="1" fill-rule="evenodd"/><g clip-path="url(#cae4d8b132)"><g clip-path="url(#659c78699c)"><path fill="url(#2c1fe94407)" d="M 43.046875 38.050781 L 43.046875 67.894531 L 53.335938 67.894531 L 53.335938 38.050781 Z M 43.046875 38.050781 " fill-rule="nonzero"/></g></g><path fill="#5e5f5f" d="M 57.464844 65.785156 L 57.464844 40.746094 L 55.410156 39.398438 L 55.410156 66.453125 C 56.089844 66.246094 56.785156 66.023438 57.464844 65.785156 Z M 57.464844 65.785156 " fill-opacity="1" fill-rule="evenodd"/><path fill="#5e5f5f" d="M 61.574219 63.996094 L 61.574219 43.441406 L 59.519531 42.09375 L 59.519531 64.976562 C 60.214844 64.660156 60.910156 64.34375 61.574219 63.996094 Z M 61.574219 63.996094 " fill-opacity="1" fill-rule="evenodd"/><path fill="#5e5f5f" d="M 65.699219 61.523438 L 65.699219 46.117188 L 63.644531 44.769531 L 63.644531 62.855469 C 64.339844 62.441406 65.019531 61.984375 65.699219 61.523438 Z M 65.699219 61.523438 " fill-opacity="1" fill-rule="evenodd"/><g fill="#ffffff" fill-opacity="1"><g transform="translate(75.791974, 30.557812)"><g><path d="M 2.4375 0 L 2.4375 -18.765625 L 10.453125 -18.765625 C 11.609375 -18.765625 12.585938 -18.582031 13.390625 -18.21875 C 14.191406 -17.863281 14.796875 -17.347656 15.203125 -16.671875 C 15.609375 -16.003906 15.8125 -15.210938 15.8125 -14.296875 C 15.8125 -13.460938 15.609375 -12.726562 15.203125 -12.09375 C 14.804688 -11.457031 14.234375 -10.945312 13.484375 -10.5625 L 13.484375 -10.296875 C 14.660156 -9.984375 15.570312 -9.421875 16.21875 -8.609375 C 16.863281 -7.796875 17.1875 -6.800781 17.1875 -5.625 C 17.1875 -3.820312 16.644531 -2.429688 15.5625 -1.453125 C 14.476562 -0.484375 12.867188 0 10.734375 0 Z M 9.6875 -11.28125 C 11.414062 -11.28125 12.28125 -12.0625 12.28125 -13.625 C 12.28125 -14.414062 12.0625 -15.003906 11.625 -15.390625 C 11.195312 -15.785156 10.550781 -15.984375 9.6875 -15.984375 L 6.15625 -15.984375 L 6.15625 -11.28125 Z M 10.359375 -2.9375 C 12.410156 -2.9375 13.4375 -3.867188 13.4375 -5.734375 C 13.4375 -7.597656 12.410156 -8.53125 10.359375 -8.53125 L 6.15625 -8.53125 L 6.15625 -2.9375 Z M 10.359375 -2.9375 "/></g></g></g><g fill="#ffffff" fill-opacity="1"><g transform="translate(105.71503, 30.557812)"><g><path d="M 6.15625 -8.25 L 6.15625 -3.109375 L 15.109375 -3.109375 L 15.109375 0 L 2.4375 0 L 2.4375 -18.765625 L 14.90625 -18.765625 L 14.90625 -15.671875 L 6.15625 -15.671875 L 6.15625 -11.28125 L 13.796875 -11.28125 L 13.796875 -8.25 Z M 6.15625 -8.25 "/></g></g></g><g fill="#ffffff" fill-opacity="1"><g transform="translate(133.417819, 30.557812)"><g><path d="M 6.03125 0 L 2.4375 0 L 2.4375 -18.765625 L 6.6875 -18.765625 L 14.234375 -6.671875 L 14.5625 -6.734375 L 14.5625 -18.765625 L 18.125 -18.765625 L 18.125 0 L 14.328125 0 L 6.359375 -12.921875 L 6.03125 -12.859375 Z M 6.03125 0 "/></g></g></g><g fill="#ffffff" fill-opacity="1"><g transform="translate(165.561154, 30.557812)"><g><path d="M 8.328125 0.265625 C 7.023438 0.265625 5.863281 0.109375 4.84375 -0.203125 C 3.832031 -0.523438 2.988281 -0.945312 2.3125 -1.46875 C 1.632812 -2 1.113281 -2.578125 0.75 -3.203125 L 2.796875 -5.6875 L 3.125 -5.6875 C 3.6875 -4.851562 4.398438 -4.1875 5.265625 -3.6875 C 6.140625 -3.1875 7.160156 -2.9375 8.328125 -2.9375 C 9.316406 -2.9375 10.0625 -3.144531 10.5625 -3.5625 C 11.070312 -3.988281 11.328125 -4.566406 11.328125 -5.296875 C 11.328125 -5.742188 11.242188 -6.117188 11.078125 -6.421875 C 10.921875 -6.722656 10.648438 -6.976562 10.265625 -7.1875 C 9.890625 -7.40625 9.382812 -7.59375 8.75 -7.75 L 6.328125 -8.296875 C 4.640625 -8.679688 3.382812 -9.320312 2.5625 -10.21875 C 1.738281 -11.113281 1.328125 -12.273438 1.328125 -13.703125 C 1.328125 -14.765625 1.59375 -15.695312 2.125 -16.5 C 2.65625 -17.300781 3.425781 -17.925781 4.4375 -18.375 C 5.445312 -18.820312 6.660156 -19.046875 8.078125 -19.046875 C 9.523438 -19.046875 10.765625 -18.851562 11.796875 -18.46875 C 12.828125 -18.09375 13.695312 -17.507812 14.40625 -16.71875 L 12.578125 -14.203125 L 12.25 -14.203125 C 11.71875 -14.753906 11.109375 -15.171875 10.421875 -15.453125 C 9.742188 -15.734375 8.960938 -15.875 8.078125 -15.875 C 7.054688 -15.875 6.28125 -15.691406 5.75 -15.328125 C 5.21875 -14.972656 4.953125 -14.476562 4.953125 -13.84375 C 4.953125 -13.25 5.140625 -12.773438 5.515625 -12.421875 C 5.890625 -12.078125 6.535156 -11.804688 7.453125 -11.609375 L 9.90625 -11.09375 C 11.726562 -10.707031 13.050781 -10.050781 13.875 -9.125 C 14.695312 -8.207031 15.109375 -7.007812 15.109375 -5.53125 C 15.109375 -4.363281 14.851562 -3.34375 14.34375 -2.46875 C 13.84375 -1.601562 13.082031 -0.929688 12.0625 -0.453125 C 11.050781 0.0234375 9.804688 0.265625 8.328125 0.265625 Z M 8.328125 0.265625 "/></g></g></g><g fill="#ffffff" fill-opacity="1"><g transform="translate(193.251101, 30.557812)"><g/></g></g><g fill="#ffffff" fill-opacity="1"><g transform="translate(211.020417, 30.557812)"><g><path d="M 2.4375 0 L 2.4375 -18.765625 L 9.984375 -18.765625 C 11.921875 -18.765625 13.382812 -18.316406 14.375 -17.421875 C 15.363281 -16.535156 15.859375 -15.300781 15.859375 -13.71875 C 15.859375 -12.582031 15.566406 -11.648438 14.984375 -10.921875 C 14.410156 -10.191406 13.550781 -9.640625 12.40625 -9.265625 L 12.40625 -8.984375 C 13 -8.734375 13.472656 -8.351562 13.828125 -7.84375 C 14.191406 -7.34375 14.539062 -6.59375 14.875 -5.59375 L 16.75 0 L 12.9375 0 L 11.09375 -5.609375 C 10.90625 -6.171875 10.691406 -6.609375 10.453125 -6.921875 C 10.222656 -7.234375 9.925781 -7.457031 9.5625 -7.59375 C 9.195312 -7.738281 8.722656 -7.8125 8.140625 -7.8125 L 6.15625 -7.8125 L 6.15625 0 Z M 9.53125 -10.765625 C 11.320312 -10.765625 12.21875 -11.601562 12.21875 -13.28125 C 12.21875 -14.976562 11.320312 -15.828125 9.53125 -15.828125 L 6.15625 -15.828125 L 6.15625 -10.765625 Z M 9.53125 -10.765625 "/></g></g></g><g fill="#ffffff" fill-opacity="1"><g transform="translate(240.134937, 30.557812)"><g><path d="M 6.15625 -8.25 L 6.15625 -3.109375 L 15.109375 -3.109375 L 15.109375 0 L 2.4375 0 L 2.4375 -18.765625 L 14.90625 -18.765625 L 14.90625 -15.671875 L 6.15625 -15.671875 L 6.15625 -11.28125 L 13.796875 -11.28125 L 13.796875 -8.25 Z M 6.15625 -8.25 "/></g></g></g><g fill="#ffffff" fill-opacity="1"><g transform="translate(267.837723, 30.557812)"><g><path d="M 18.015625 0 L 14.109375 0 L 12.703125 -4.328125 L 5.515625 -4.328125 L 4.09375 0 L 0.28125 0 L 6.765625 -18.765625 L 11.53125 -18.765625 Z M 8.921875 -14.859375 L 6.515625 -7.453125 L 11.671875 -7.453125 L 9.25 -14.859375 Z M 8.921875 -14.859375 "/></g></g></g><g fill="#ffffff" fill-opacity="1"><g transform="translate(297.696623, 30.557812)"><g><path d="M 6.15625 -18.765625 L 6.15625 -3.109375 L 14.59375 -3.109375 L 14.59375 0 L 2.4375 0 L 2.4375 -18.765625 Z M 6.15625 -18.765625 "/></g></g></g><g fill="#ffffff" fill-opacity="1"><g transform="translate(75.791974, 67.078124)"><g><path d="M 6.15625 -8.25 L 6.15625 -3.109375 L 15.109375 -3.109375 L 15.109375 0 L 2.4375 0 L 2.4375 -18.765625 L 14.90625 -18.765625 L 14.90625 -15.671875 L 6.15625 -15.671875 L 6.15625 -11.28125 L 13.796875 -11.28125 L 13.796875 -8.25 Z M 6.15625 -8.25 "/></g></g></g><g fill="#ffffff" fill-opacity="1"><g transform="translate(103.494763, 67.078124)"><g><path d="M 8.328125 0.265625 C 7.023438 0.265625 5.863281 0.109375 4.84375 -0.203125 C 3.832031 -0.523438 2.988281 -0.945312 2.3125 -1.46875 C 1.632812 -2 1.113281 -2.578125 0.75 -3.203125 L 2.796875 -5.6875 L 3.125 -5.6875 C 3.6875 -4.851562 4.398438 -4.1875 5.265625 -3.6875 C 6.140625 -3.1875 7.160156 -2.9375 8.328125 -2.9375 C 9.316406 -2.9375 10.0625 -3.144531 10.5625 -3.5625 C 11.070312 -3.988281 11.328125 -4.566406 11.328125 -5.296875 C 11.328125 -5.742188 11.242188 -6.117188 11.078125 -6.421875 C 10.921875 -6.722656 10.648438 -6.976562 10.265625 -7.1875 C 9.890625 -7.40625 9.382812 -7.59375 8.75 -7.75 L 6.328125 -8.296875 C 4.640625 -8.679688 3.382812 -9.320312 2.5625 -10.21875 C 1.738281 -11.113281 1.328125 -12.273438 1.328125 -13.703125 C 1.328125 -14.765625 1.59375 -15.695312 2.125 -16.5 C 2.65625 -17.300781 3.425781 -17.925781 4.4375 -18.375 C 5.445312 -18.820312 6.660156 -19.046875 8.078125 -19.046875 C 9.523438 -19.046875 10.765625 -18.851562 11.796875 -18.46875 C 12.828125 -18.09375 13.695312 -17.507812 14.40625 -16.71875 L 12.578125 -14.203125 L 12.25 -14.203125 C 11.71875 -14.753906 11.109375 -15.171875 10.421875 -15.453125 C 9.742188 -15.734375 8.960938 -15.875 8.078125 -15.875 C 7.054688 -15.875 6.28125 -15.691406 5.75 -15.328125 C 5.21875 -14.972656 4.953125 -14.476562 4.953125 -13.84375 C 4.953125 -13.25 5.140625 -12.773438 5.515625 -12.421875 C 5.890625 -12.078125 6.535156 -11.804688 7.453125 -11.609375 L 9.90625 -11.09375 C 11.726562 -10.707031 13.050781 -10.050781 13.875 -9.125 C 14.695312 -8.207031 15.109375 -7.007812 15.109375 -5.53125 C 15.109375 -4.363281 14.851562 -3.34375 14.34375 -2.46875 C 13.84375 -1.601562 13.082031 -0.929688 12.0625 -0.453125 C 11.050781 0.0234375 9.804688 0.265625 8.328125 0.265625 Z M 8.328125 0.265625 "/></g></g></g><g fill="#ffffff" fill-opacity="1"><g transform="translate(131.184713, 67.078124)"><g><path d="M 15.046875 -18.765625 L 15.046875 -15.65625 L 9.625 -15.65625 L 9.625 0 L 5.9375 0 L 5.9375 -15.65625 L 0.515625 -15.65625 L 0.515625 -18.765625 Z M 15.046875 -18.765625 "/></g></g></g><g fill="#ffffff" fill-opacity="1"><g transform="translate(158.309972, 67.078124)"><g><path d="M 18.015625 0 L 14.109375 0 L 12.703125 -4.328125 L 5.515625 -4.328125 L 4.09375 0 L 0.28125 0 L 6.765625 -18.765625 L 11.53125 -18.765625 Z M 8.921875 -14.859375 L 6.515625 -7.453125 L 11.671875 -7.453125 L 9.25 -14.859375 Z M 8.921875 -14.859375 "/></g></g></g><g fill="#ffffff" fill-opacity="1"><g transform="translate(188.168861, 67.078124)"><g><path d="M 15.046875 -18.765625 L 15.046875 -15.65625 L 9.625 -15.65625 L 9.625 0 L 5.9375 0 L 5.9375 -15.65625 L 0.515625 -15.65625 L 0.515625 -18.765625 Z M 15.046875 -18.765625 "/></g></g></g><g fill="#ffffff" fill-opacity="1"><g transform="translate(215.294114, 67.078124)"><g><path d="M 6.15625 -8.25 L 6.15625 -3.109375 L 15.109375 -3.109375 L 15.109375 0 L 2.4375 0 L 2.4375 -18.765625 L 14.90625 -18.765625 L 14.90625 -15.671875 L 6.15625 -15.671875 L 6.15625 -11.28125 L 13.796875 -11.28125 L 13.796875 -8.25 Z M 6.15625 -8.25 "/></g></g></g></svg>