<svg xmlns="http://www.w3.org/2000/svg" xmlns:xlink="http://www.w3.org/1999/xlink" width="431" zoomAndPan="magnify" viewBox="0 0 323.25 79.499998" height="106" preserveAspectRatio="xMidYMid meet" version="1.0"><defs><g/><clipPath id="da6d2a4449"><path d="M 0.636719 0 L 113.925781 0 L 113.925781 77.511719 L 0.636719 77.511719 Z M 0.636719 0 " clip-rule="nonzero"/></clipPath></defs><g clip-path="url(#da6d2a4449)"><path fill="#ffffff" d="M 98.199219 65.886719 L 98.199219 29.902344 L 84.714844 23.046875 L 84.714844 23.027344 L 84.695312 23.039062 L 84.675781 23.027344 L 84.675781 23.046875 L 71.191406 29.902344 L 71.191406 65.925781 C 70.320312 66.058594 69.4375 66.199219 68.554688 66.351562 L 68.554688 6.875 L 55.03125 0 L 41.503906 6.875 L 41.503906 71.523438 C 41.128906 71.59375 40.75 71.660156 40.371094 71.726562 C 39.878906 71.8125 39.390625 71.894531 38.910156 71.972656 L 38.910156 29.902344 L 25.425781 23.046875 L 25.425781 23.027344 L 25.40625 23.039062 L 25.386719 23.027344 L 25.386719 23.046875 L 11.902344 29.902344 L 11.902344 69.863281 C 3.609375 66.359375 0.707031 61.015625 0.640625 60.890625 C 2.632812 66.308594 5.910156 70.988281 11.902344 73.964844 C 12.847656 74.429688 13.820312 74.839844 14.816406 75.191406 C 17.148438 76.023438 19.820312 76.640625 22.886719 77.003906 C 27.335938 77.535156 32.621094 77.53125 38.910156 76.886719 C 39.757812 76.800781 40.621094 76.699219 41.503906 76.589844 C 44.148438 76.257812 46.964844 75.816406 49.949219 75.265625 C 52.253906 74.839844 54.664062 74.34375 57.183594 73.777344 C 57.3125 73.746094 57.441406 73.71875 57.570312 73.6875 C 59.371094 73.28125 61.230469 72.835938 63.144531 72.355469 C 63.992188 72.140625 64.820312 71.9375 65.640625 71.746094 C 66.632812 71.515625 67.601562 71.296875 68.554688 71.09375 C 69.449219 70.898438 70.328125 70.71875 71.191406 70.554688 C 77.34375 69.363281 82.648438 68.785156 87.214844 68.65625 C 90.210938 68.570312 92.890625 68.679688 95.285156 68.929688 C 96.308594 69.035156 97.277344 69.167969 98.199219 69.324219 C 108.246094 71.023438 112.382812 75.382812 113.828125 77.476562 C 109.980469 71.160156 104.625 67.609375 98.199219 65.886719 Z M 18.878906 45.746094 L 14.289062 47.964844 L 14.289062 43.371094 L 18.878906 41.15625 Z M 18.878906 39.746094 L 14.289062 41.964844 L 14.289062 37.371094 L 18.878906 35.15625 Z M 18.878906 33.746094 L 14.289062 35.964844 L 14.289062 31.371094 L 18.878906 29.15625 Z M 24.539062 48.925781 L 19.949219 51.140625 L 19.949219 46.550781 L 24.539062 44.332031 Z M 24.539062 42.925781 L 19.949219 45.140625 L 19.949219 40.550781 L 24.539062 38.335938 Z M 24.539062 36.925781 L 19.949219 39.140625 L 19.949219 34.550781 L 24.539062 32.335938 Z M 24.539062 30.925781 L 19.949219 33.144531 L 19.949219 28.550781 L 24.539062 26.335938 Z M 61.824219 33.558594 L 57.234375 31.339844 L 57.234375 26.75 L 61.824219 28.964844 Z M 61.824219 27.558594 L 57.234375 25.339844 L 57.234375 20.75 L 61.824219 22.964844 Z M 61.824219 21.558594 L 57.234375 19.339844 L 57.234375 14.75 L 61.824219 16.964844 Z M 61.824219 15.558594 L 57.234375 13.339844 L 57.234375 8.75 L 61.824219 10.964844 Z M 61.824219 9.558594 L 57.234375 7.339844 L 57.234375 2.75 L 61.824219 4.96875 Z M 67.484375 30.378906 L 62.894531 28.164062 L 62.894531 23.570312 L 67.484375 25.789062 Z M 67.484375 24.378906 L 62.894531 22.164062 L 62.894531 17.570312 L 67.484375 19.789062 Z M 67.484375 18.378906 L 62.894531 16.164062 L 62.894531 11.570312 L 67.484375 13.789062 Z M 67.484375 12.378906 L 62.894531 10.164062 L 62.894531 5.570312 L 67.484375 7.789062 Z M 90.113281 51.140625 L 85.519531 48.925781 L 85.519531 44.332031 L 90.113281 46.550781 Z M 90.113281 45.140625 L 85.519531 42.925781 L 85.519531 38.335938 L 90.113281 40.550781 Z M 90.113281 39.140625 L 85.519531 36.925781 L 85.519531 32.335938 L 90.113281 34.550781 Z M 90.113281 33.140625 L 85.519531 30.925781 L 85.519531 26.335938 L 90.113281 28.550781 Z M 95.773438 47.964844 L 91.179688 45.746094 L 91.179688 41.15625 L 95.773438 43.371094 Z M 95.773438 41.964844 L 91.179688 39.746094 L 91.179688 35.15625 L 95.773438 37.371094 Z M 95.773438 35.964844 L 91.179688 33.746094 L 91.179688 29.15625 L 95.773438 31.371094 Z M 109.320312 77.066406 C 109.320312 77.066406 93.144531 70.625 67.542969 74.867188 C 67.542969 74.867188 96.128906 63.558594 109.320312 77.066406 Z M 109.320312 77.066406 " fill-opacity="1" fill-rule="nonzero"/></g><g fill="#ffffff" fill-opacity="1"><g transform="translate(119.903599, 64.91809)"><g><path d="M 1.0625 0 L 1.0625 -0.484375 L 2.078125 -0.828125 C 2.722656 -1.046875 3.140625 -1.34375 3.328125 -1.71875 C 3.523438 -2.09375 3.625 -2.617188 3.625 -3.296875 L 3.625 -28.609375 C 3.625 -29.253906 3.535156 -29.757812 3.359375 -30.125 C 3.179688 -30.5 2.785156 -30.800781 2.171875 -31.03125 L 1.0625 -31.46875 L 1.0625 -31.953125 L 14.90625 -31.953125 C 18.71875 -31.953125 21.640625 -31.234375 23.671875 -29.796875 C 25.703125 -28.359375 26.71875 -26.363281 26.71875 -23.8125 C 26.71875 -22.394531 26.1875 -20.972656 25.125 -19.546875 C 24.0625 -18.128906 22.382812 -17.035156 20.09375 -16.265625 L 26.8125 -2.90625 C 27.101562 -2.351562 27.429688 -1.90625 27.796875 -1.5625 C 28.171875 -1.226562 28.664062 -0.929688 29.28125 -0.671875 L 29.921875 -0.4375 L 29.921875 0 L 21.25 0 L 14.09375 -15.25 L 10.796875 -15.25 L 10.796875 -3.296875 C 10.796875 -2.679688 10.890625 -2.175781 11.078125 -1.78125 C 11.273438 -1.394531 11.679688 -1.109375 12.296875 -0.921875 L 13.453125 -0.484375 L 13.453125 0 Z M 10.796875 -16.21875 L 13.125 -16.21875 C 15.445312 -16.21875 17.125 -16.835938 18.15625 -18.078125 C 19.1875 -19.316406 19.703125 -21.164062 19.703125 -23.625 C 19.703125 -26.101562 19.21875 -27.945312 18.25 -29.15625 C 17.28125 -30.375 15.648438 -30.984375 13.359375 -30.984375 L 10.796875 -30.984375 Z M 10.796875 -16.21875 "/></g></g></g><g fill="#ffffff" fill-opacity="1"><g transform="translate(150.291552, 64.91809)"><g><path d="M 1.0625 0 L 1.0625 -0.484375 L 2.171875 -0.921875 C 2.722656 -1.148438 3.101562 -1.445312 3.3125 -1.8125 C 3.519531 -2.1875 3.625 -2.695312 3.625 -3.34375 L 3.625 -28.609375 C 3.625 -29.253906 3.535156 -29.757812 3.359375 -30.125 C 3.179688 -30.5 2.785156 -30.800781 2.171875 -31.03125 L 1.0625 -31.46875 L 1.0625 -31.953125 L 24.25 -31.953125 L 24.546875 -24.5 L 24.0625 -24.5 L 21.96875 -29.046875 C 21.6875 -29.628906 21.382812 -30.097656 21.0625 -30.453125 C 20.738281 -30.804688 20.253906 -30.984375 19.609375 -30.984375 L 10.890625 -30.984375 L 10.890625 -16.984375 L 16.078125 -16.984375 C 16.710938 -16.984375 17.203125 -17.148438 17.546875 -17.484375 C 17.890625 -17.828125 18.1875 -18.289062 18.4375 -18.875 L 19.40625 -20.8125 L 19.890625 -20.8125 L 19.890625 -12.109375 L 19.40625 -12.109375 L 18.4375 -14.140625 C 18.144531 -14.710938 17.835938 -15.164062 17.515625 -15.5 C 17.191406 -15.84375 16.710938 -16.015625 16.078125 -16.015625 L 10.890625 -16.015625 L 10.890625 -0.96875 L 20.671875 -0.96875 C 21.316406 -0.96875 21.816406 -1.132812 22.171875 -1.46875 C 22.523438 -1.8125 22.816406 -2.289062 23.046875 -2.90625 L 25.03125 -7.453125 L 25.515625 -7.453125 L 25.21875 0 Z M 1.0625 0 "/></g></g></g><g fill="#ffffff" fill-opacity="1"><g transform="translate(177.147145, 64.91809)"><g><path d="M 1.265625 7.75 L 14.1875 -34.375 L 15.34375 -34.375 L 2.421875 7.75 Z M 1.265625 7.75 "/></g></g></g><g fill="#ffffff" fill-opacity="1"><g transform="translate(193.695995, 64.91809)"><g><path d="M 0.96875 0 L 0.96875 -0.484375 L 1.9375 -0.828125 C 3.03125 -1.179688 3.578125 -2.097656 3.578125 -3.578125 L 3.578125 -28.359375 C 3.578125 -29.003906 3.503906 -29.519531 3.359375 -29.90625 C 3.210938 -30.300781 2.835938 -30.628906 2.234375 -30.890625 L 0.96875 -31.46875 L 0.96875 -31.953125 L 10.3125 -31.953125 L 19.265625 -8.515625 L 27.6875 -31.953125 L 37.21875 -31.953125 L 37.21875 -31.46875 L 36.453125 -31.171875 C 35.835938 -30.941406 35.414062 -30.625 35.1875 -30.21875 C 34.96875 -29.820312 34.859375 -29.300781 34.859375 -28.65625 L 34.859375 -3.34375 C 34.859375 -2.695312 34.9375 -2.195312 35.09375 -1.84375 C 35.257812 -1.488281 35.644531 -1.179688 36.25 -0.921875 L 37.21875 -0.484375 L 37.21875 0 L 25.171875 0 L 25.171875 -0.484375 L 26.1875 -0.921875 C 26.800781 -1.179688 27.1875 -1.488281 27.34375 -1.84375 C 27.507812 -2.195312 27.59375 -2.695312 27.59375 -3.34375 L 27.59375 -14.234375 L 27.6875 -28.078125 L 17.578125 0 L 15.15625 0 L 4.59375 -27.734375 L 4.75 -15.6875 L 4.75 -3.484375 C 4.75 -2.773438 4.851562 -2.203125 5.0625 -1.765625 C 5.269531 -1.328125 5.679688 -1.015625 6.296875 -0.828125 L 7.359375 -0.484375 L 7.359375 0 Z M 0.96875 0 "/></g></g></g><g fill="#ffffff" fill-opacity="1"><g transform="translate(231.971261, 64.91809)"><g><path d="M 0.390625 0 L 0.390625 -0.484375 L 1.59375 -0.921875 C 2.238281 -1.179688 2.738281 -1.492188 3.09375 -1.859375 C 3.445312 -2.234375 3.738281 -2.757812 3.96875 -3.4375 L 13.9375 -32.046875 L 18.0625 -32.046875 L 27.875 -3.25 C 28.132812 -2.53125 28.425781 -1.984375 28.75 -1.609375 C 29.070312 -1.242188 29.570312 -0.929688 30.25 -0.671875 L 30.828125 -0.484375 L 30.828125 0 L 18.546875 0 L 18.546875 -0.484375 L 19.265625 -0.71875 C 19.941406 -0.976562 20.351562 -1.34375 20.5 -1.8125 C 20.644531 -2.28125 20.617188 -2.835938 20.421875 -3.484375 L 18.15625 -10.453125 L 7.40625 -10.453125 L 5.078125 -3.625 C 4.859375 -2.914062 4.785156 -2.351562 4.859375 -1.9375 C 4.941406 -1.519531 5.320312 -1.179688 6 -0.921875 L 7.0625 -0.484375 L 7.0625 0 Z M 7.75 -11.421875 L 17.859375 -11.421875 L 12.96875 -26.484375 Z M 7.75 -11.421875 "/></g></g></g><g fill="#ffffff" fill-opacity="1"><g transform="translate(263.423758, 64.91809)"><g><path d="M 0.484375 0 L 0.484375 -0.484375 L 1.3125 -0.71875 C 1.988281 -0.945312 2.519531 -1.242188 2.90625 -1.609375 C 3.289062 -1.984375 3.675781 -2.460938 4.0625 -3.046875 L 11.515625 -14.578125 L 3.046875 -29 C 2.722656 -29.539062 2.445312 -29.960938 2.21875 -30.265625 C 2 -30.578125 1.582031 -30.863281 0.96875 -31.125 L 0.1875 -31.46875 L 0.1875 -31.953125 L 13.171875 -31.953125 L 13.171875 -31.46875 L 12.046875 -31.125 C 11.367188 -30.894531 11 -30.535156 10.9375 -30.046875 C 10.875 -29.566406 11.035156 -28.988281 11.421875 -28.3125 L 16.40625 -19.84375 L 21.734375 -28.265625 C 22.148438 -28.941406 22.398438 -29.554688 22.484375 -30.109375 C 22.566406 -30.660156 22.238281 -31.03125 21.5 -31.21875 L 20.53125 -31.46875 L 20.53125 -31.953125 L 27.25 -31.953125 L 27.25 -31.46875 L 26 -31.078125 C 25.382812 -30.910156 24.90625 -30.640625 24.5625 -30.265625 C 24.226562 -29.898438 23.882812 -29.445312 23.53125 -28.90625 L 17.03125 -18.78125 L 26.234375 -3.046875 C 26.585938 -2.460938 26.925781 -2.019531 27.25 -1.71875 C 27.570312 -1.414062 28.023438 -1.132812 28.609375 -0.875 L 29.53125 -0.484375 L 29.53125 0 L 15.96875 0 L 15.96875 -0.484375 L 17.09375 -0.78125 C 17.863281 -0.96875 18.296875 -1.316406 18.390625 -1.828125 C 18.492188 -2.347656 18.332031 -2.945312 17.90625 -3.625 L 12.15625 -13.453125 L 5.8125 -3.4375 C 5.382812 -2.789062 5.210938 -2.207031 5.296875 -1.6875 C 5.378906 -1.175781 5.726562 -0.835938 6.34375 -0.671875 L 7.015625 -0.484375 L 7.015625 0 Z M 0.484375 0 "/></g></g></g></svg>